<svg width="71" height="65" viewBox="0 0 71 65" fill="none" xmlns="http://www.w3.org/2000/svg">
<path d="M1.6595 45.1815C1.49272 45.08 1.35443 44.9376 1.25769 44.7678C1.16096 44.5979 1.10894 44.4061 1.10652 44.2106C1.10652 44.007 1.10652 38.6982 1.10652 38.504C1.05341 36.4432 0.990901 35.0589 2.24993 34.3729L32.729 18.6189C33.5894 18.1153 34.5678 17.85 35.5641 17.85C36.5604 17.85 37.5389 18.1153 38.3993 18.6189L69.447 34.7394C70.3842 35.2843 70.2686 36.9318 70.2186 38.3663C70.2186 38.5949 70.2186 43.9287 70.2186 44.1417C70.2186 44.7399 69.6094 45.1596 69.2001 45.3945L38.9148 63.0935C37.902 63.6871 36.7499 64 35.5766 64C34.4034 64 33.2513 63.6871 32.2385 63.0935L1.6595 45.1815Z" fill="url(#paint0_linear_312_12)"/>
<path d="M2.21557 34.3731L32.7165 16.5488C33.5769 16.0452 34.5554 15.7799 35.5517 15.7799C36.548 15.7799 37.5264 16.0452 38.3868 16.5488L69.1752 34.5422C69.494 34.7295 69.7584 34.997 69.9422 35.3185C70.1259 35.6399 70.2226 36.0039 70.2226 36.3744C70.2226 36.7448 70.1259 37.1089 69.9422 37.4303C69.7584 37.7517 69.494 38.0194 69.1752 38.2066L38.8897 55.9088C37.8765 56.5012 36.7246 56.8133 35.5517 56.8133C34.3787 56.8133 33.2268 56.5012 32.2135 55.9088L2.22182 38.3695C1.87576 38.1642 1.58892 37.8722 1.38946 37.5222C1.19 37.1722 1.08477 36.7762 1.08414 36.3731C1.08351 35.97 1.18743 35.5736 1.3858 35.223C1.58417 34.8723 1.87015 34.5794 2.21557 34.3731V34.3731Z" fill="url(#paint1_linear_312_12)"/>
<path d="M7.62651 34.8679L33.2069 19.2454C33.9051 18.8152 34.7086 18.5875 35.5281 18.5875C36.3476 18.5875 37.1512 18.8152 37.8494 19.2454L63.6641 35.0119C63.8634 35.1393 64.0275 35.3149 64.1412 35.5227C64.2548 35.7304 64.3145 35.9636 64.3145 36.2005C64.3145 36.4375 64.2548 36.6706 64.1412 36.8784C64.0275 37.0861 63.8634 37.2618 63.6641 37.3892L38.2617 52.9051C37.4396 53.4104 36.4941 53.6779 35.5297 53.6779C34.5653 53.6779 33.6197 53.4104 32.7976 52.9051L7.62651 37.5332C7.40403 37.3897 7.221 37.1924 7.09428 36.9596C6.96755 36.7268 6.90115 36.4658 6.90115 36.2005C6.90115 35.9353 6.96755 35.6743 7.09428 35.4414C7.221 35.2086 7.40403 35.0114 7.62651 34.8679V34.8679Z" fill="url(#paint2_linear_312_12)"/>
<path d="M7.62651 34.8679L33.2069 19.2454C33.9051 18.8152 34.7086 18.5875 35.5281 18.5875C36.3476 18.5875 37.1512 18.8152 37.8494 19.2454L63.6641 35.0119C63.8634 35.1393 64.0275 35.3149 64.1412 35.5227C64.2548 35.7304 64.3145 35.9636 64.3145 36.2005C64.3145 36.4375 64.2548 36.6706 64.1412 36.8784C64.0275 37.0861 63.8634 37.2618 63.6641 37.3892L38.2617 52.9051C37.4396 53.4104 36.4941 53.6779 35.5297 53.6779C34.5653 53.6779 33.6197 53.4104 32.7976 52.9051L7.62651 37.5332C7.40403 37.3897 7.221 37.1924 7.09428 36.9596C6.96755 36.7268 6.90115 36.4658 6.90115 36.2005C6.90115 35.9353 6.96755 35.6743 7.09428 35.4414C7.221 35.2086 7.40403 35.0114 7.62651 34.8679V34.8679Z" fill="url(#paint3_linear_312_12)"/>
<path d="M7.43908 37.3952C7.49897 37.3468 7.56159 37.3018 7.62656 37.2605L33.2069 21.6381C33.9051 21.2079 34.7086 20.9801 35.5281 20.9801C36.3477 20.9801 37.1512 21.2079 37.8494 21.6381L63.6516 37.3952C63.8509 37.2678 64.015 37.0922 64.1287 36.8845C64.2424 36.6767 64.302 36.4436 64.302 36.2066C64.302 35.9696 64.2424 35.7365 64.1287 35.5287C64.015 35.321 63.8509 35.1454 63.6516 35.018L37.8369 19.2514C37.1387 18.8212 36.3352 18.5935 35.5157 18.5935C34.6962 18.5935 33.8926 18.8212 33.1944 19.2514L7.61405 34.874C7.41006 35.0082 7.23973 35.1879 7.11645 35.399C6.99316 35.6102 6.9202 35.8471 6.90326 36.0911C6.88633 36.3352 6.92588 36.5799 7.01882 36.8061C7.11176 37.0323 7.2556 37.2339 7.43908 37.3952V37.3952Z" fill="url(#paint4_linear_312_12)"/>
<path opacity="0.5" d="M63.636 37.4519L40.683 51.5459L38.3087 53.1119C37.513 53.5597 36.6214 53.8089 35.7094 53.8385C34.7207 53.8846 33.741 53.6314 32.8977 53.1119L7.79835 37.6742C7.79835 37.6742 6.89551 37.1919 6.89551 36.3431C6.89551 35.4943 4.63364 26.7623 4.63364 26.7623H66.5915C66.5915 26.7623 64.3296 35.2531 64.3296 36.2209C64.3296 37.1887 63.636 37.4519 63.636 37.4519Z" fill="url(#paint5_linear_312_12)"/>
<path d="M2.61856 19.4019C2.6641 19.3744 2.71101 19.3493 2.75914 19.3267L32.6633 4.33067C33.5108 3.83236 34.4754 3.56961 35.4579 3.56961C36.4403 3.56961 37.405 3.83236 38.2524 4.33067L68.7034 19.477C69.6906 19.9782 70.1998 21.3155 70.1998 22.6811V23.3357C70.2002 23.7559 70.0965 24.1696 69.898 24.5397C69.6996 24.9098 69.4125 25.2247 69.0626 25.4561L68.5971 25.7693L39.6239 42.7542C38.3606 43.4969 36.9225 43.8885 35.4579 43.8885C33.9933 43.8885 32.5552 43.4969 31.2919 42.7542L2.60606 25.9259C2.24678 25.6972 1.9656 25.5124 1.50635 25.1867C1.35 25.075 1.22248 24.9275 1.13445 24.7564C1.04642 24.5854 1.00039 24.3957 1.00021 24.2033C1.00021 23.7648 1.00021 23.2198 1.00021 22.8033C0.987712 21.4565 1.53761 20.0815 2.61856 19.4019Z" fill="url(#paint6_linear_312_12)"/>
<path d="M2.6124 19.3988L32.7822 1.76557C33.6348 1.26424 34.6054 1 35.5939 1C36.5824 1 37.553 1.26424 38.4056 1.76557L68.844 19.5774C69.1596 19.7627 69.4214 20.0276 69.6033 20.3457C69.7851 20.6638 69.8809 21.0241 69.8809 21.3908C69.8809 21.7575 69.7851 22.1178 69.6033 22.4359C69.4214 22.7541 69.1596 23.0189 68.844 23.2043L38.8898 40.7122C37.888 41.2998 36.7483 41.6096 35.5876 41.6096C34.427 41.6096 33.2872 41.2998 32.2854 40.7122L2.60615 23.3703C2.25951 23.1679 1.97198 22.8777 1.77233 22.5289C1.57269 22.1801 1.46791 21.7848 1.46854 21.3827C1.46917 20.9806 1.57518 20.5857 1.77592 20.2375C1.97666 19.8893 2.26513 19.6001 2.6124 19.3988V19.3988Z" fill="url(#paint7_linear_312_12)"/>
<path d="M29.9805 26.204C29.554 26.1778 29.1295 26.2831 28.7602 26.5069C28.6284 26.5674 28.5154 26.6651 28.4341 26.7889C28.3527 26.9127 28.3063 27.0578 28.3 27.2076V28.1614C28.3347 28.6134 28.7342 28.9435 29.5159 29.1243L32.9466 29.73V32.5329C33.0465 33.1432 33.6284 33.4913 34.662 33.55H36.6075C37.0235 33.5533 37.4338 33.4491 37.8018 33.2471C37.9422 33.1869 38.064 33.0875 38.1536 32.9599C38.2433 32.8323 38.2974 32.6814 38.3099 32.5238V29.73L41.758 29.1243C42.5136 28.9435 42.9305 28.6135 43 28.1253L42.9522 27.194C42.8567 26.5837 42.2834 26.2402 41.2803 26.204H29.9805ZM34.3624 32.5329V29.1153L29.9285 28.3016C29.8112 28.2699 29.759 28.2201 29.759 28.1342L29.7157 27.2301C29.7157 27.1894 29.7765 27.1442 29.8243 27.1126C29.8695 27.0869 29.9204 27.0745 29.9718 27.0765H41.2629C41.3202 27.0703 41.378 27.0832 41.428 27.1132C41.4779 27.1433 41.5174 27.1889 41.5409 27.2437V28.1478C41.5409 28.2247 41.454 28.2699 41.3455 28.3016L36.8898 29.1198V32.5103C36.871 32.5653 36.8352 32.6124 36.7882 32.6443C36.7411 32.6761 36.6852 32.6909 36.6292 32.6865H34.6402C34.523 32.6684 34.4058 32.6414 34.3493 32.5238L34.3624 32.5329Z" fill="url(#paint8_linear_312_12)"/>
<path d="M32.9348 17.3883V11.2523L35.5462 9.21694C35.5798 9.19547 35.6153 9.17696 35.6522 9.16151H35.6832L38.361 11.2395V17.3713C38.4051 17.6146 38.6658 17.7639 39.1254 17.798C39.2917 17.8015 39.4561 17.7633 39.6025 17.6871C39.6615 17.6568 39.7138 17.6155 39.7563 17.5657C39.7987 17.5159 39.8305 17.4586 39.85 17.3969V11.1371L39.7484 10.9494L36.8983 8.69637C36.5243 8.46814 36.0903 8.34817 35.6478 8.35071C35.2 8.33848 34.7595 8.46239 34.3885 8.70491L31.6488 10.8726C31.5941 10.8954 31.5468 10.9319 31.5118 10.9785C31.4768 11.025 31.4555 11.0798 31.45 11.1371V17.4225C31.5295 17.6401 31.7727 17.7767 32.188 17.798C32.6034 17.8194 32.895 17.6529 32.9348 17.3883Z" fill="url(#paint9_linear_312_12)"/>
<path d="M51.1499 19.4291L50.1088 17.4552C49.8049 17.0252 49.2151 16.7887 48.3974 16.75L46.8069 16.7757C45.7614 16.8316 45.176 17.1585 45.1045 17.7305V24.181C45.0688 24.4735 45.2475 24.7099 45.6228 24.882C45.9931 25.0679 46.4072 25.1583 46.8247 25.1443H48.4556C48.7701 25.1681 49.0858 25.1169 49.3749 24.9954C49.664 24.8739 49.9176 24.6858 50.1132 24.4476L51.1454 22.4909H55.9307C56.3666 22.5009 56.7977 22.4016 57.1818 22.2028C57.3201 22.1366 57.4395 22.0389 57.5298 21.9183C57.6201 21.7977 57.6785 21.6577 57.7 21.5104V20.3967C57.6017 19.8205 56.9986 19.485 55.962 19.4291H51.1499ZM56.1987 20.3924V21.519C56.1987 21.5878 56.1362 21.6567 55.9307 21.6825H50.0774L48.6835 24.2111C48.6298 24.2799 48.5494 24.31 48.393 24.31L46.8247 24.3358C46.7713 24.3368 46.7187 24.3234 46.6728 24.2971C46.6192 24.267 46.5611 24.2283 46.5611 24.1895V17.739C46.5611 17.6745 46.6192 17.61 46.847 17.5799L48.4064 17.6058C48.5538 17.6058 48.6343 17.6315 48.679 17.6875L50.0819 20.2332H55.8904C56.1362 20.2633 56.1853 20.3236 56.1987 20.3924V20.3924Z" fill="url(#paint10_linear_312_12)"/>
<path d="M42.9913 23.0299C42.9521 22.7903 42.6906 22.6432 42.2372 22.6095H18.726L15.1212 21.176C15.0872 21.1598 15.055 21.1401 15.0254 21.1172H15.0472L18.7303 19.6501H42.2678C42.7037 19.6291 42.9608 19.4861 43 19.2297C42.9608 19.0321 42.7211 18.8933 42.2896 18.8513H18.5342C18.398 18.8439 18.2618 18.8684 18.1375 18.9227L14.2146 20.4698C14.0575 20.5198 13.9175 20.6099 13.8092 20.7306C13.701 20.8513 13.6287 20.9979 13.6 21.155C13.6 21.4198 13.8092 21.6511 14.2277 21.8445L18.1114 23.3705C18.2459 23.4371 18.3964 23.4676 18.5473 23.4587H31.6934V24.7746C31.7718 24.9932 32.0116 25.1235 32.3995 25.1445C32.4589 25.1518 32.5189 25.1518 32.5782 25.1445C32.7113 25.1499 32.843 25.1178 32.9574 25.052C33.1274 24.9595 33.1928 24.8418 33.1536 24.7409V23.3831H38.5062V24.6863C38.5411 24.9302 38.8026 25.0731 39.2559 25.1067C39.4035 25.1254 39.5533 25.0968 39.6824 25.0254C39.8115 24.9541 39.9128 24.8437 39.9707 24.7115V23.421H42.3375C42.5019 23.4084 42.662 23.3641 42.8083 23.2906C42.8593 23.2658 42.9029 23.2288 42.9349 23.1832C42.9669 23.1375 42.9863 23.0848 42.9913 23.0299V23.0299Z" fill="url(#paint11_linear_312_12)"/>
<defs>
<linearGradient id="paint0_linear_312_12" x1="177199" y1="138844" x2="192512" y2="138844" gradientUnits="userSpaceOnUse">
<stop stop-color="#2A2047"/>
<stop offset="1" stop-color="#31294F"/>
</linearGradient>
<linearGradient id="paint1_linear_312_12" x1="177126" y1="122844" x2="192428" y2="122844" gradientUnits="userSpaceOnUse">
<stop stop-color="#312A56"/>
<stop offset="1" stop-color="#423572"/>
</linearGradient>
<linearGradient id="paint2_linear_312_12" x1="153439" y1="107487" x2="153439" y2="103556" gradientUnits="userSpaceOnUse">
<stop offset="0.1" stop-color="#14DD94"/>
<stop offset="0.44" stop-color="#06EF95"/>
</linearGradient>
<linearGradient id="paint3_linear_312_12" x1="38.5617" y1="25.8853" x2="28.9667" y2="59.1657" gradientUnits="userSpaceOnUse">
<stop stop-color="#00D7FF"/>
<stop offset="0.5" stop-color="#15ADFF"/>
<stop offset="1" stop-color="#00C5E9"/>
</linearGradient>
<linearGradient id="paint4_linear_312_12" x1="153410" y1="56503.6" x2="153410" y2="55374.6" gradientUnits="userSpaceOnUse">
<stop stop-color="#2A2047"/>
<stop offset="1" stop-color="#31294F"/>
</linearGradient>
<linearGradient id="paint5_linear_312_12" x1="35.5969" y1="53.8698" x2="35.5969" y2="26.7811" gradientUnits="userSpaceOnUse">
<stop offset="0.49" stop-color="#15E8FF" stop-opacity="0.7"/>
<stop offset="0.58" stop-color="#12E5FF" stop-opacity="0.64"/>
<stop offset="0.75" stop-color="#0CDDFF" stop-opacity="0.48"/>
<stop offset="0.98" stop-color="#01D1FF" stop-opacity="0.22"/>
<stop offset="1" stop-color="#00D0FF" stop-opacity="0.2"/>
</linearGradient>
<linearGradient id="paint6_linear_312_12" x1="177265" y1="119075" x2="192594" y2="119075" gradientUnits="userSpaceOnUse">
<stop stop-color="#D6D0EF"/>
<stop offset="1" stop-color="#B6B9DD"/>
</linearGradient>
<linearGradient id="paint7_linear_312_12" x1="1.47229" y1="21.3057" x2="69.8781" y2="21.3057" gradientUnits="userSpaceOnUse">
<stop stop-color="white"/>
<stop offset="1" stop-color="#ECE8F9"/>
</linearGradient>
<linearGradient id="paint8_linear_312_12" x1="38571" y1="21683.9" x2="39562.6" y2="21683.9" gradientUnits="userSpaceOnUse">
<stop stop-color="#03D2F8"/>
<stop offset="0.5" stop-color="#15ADFF"/>
<stop offset="1" stop-color="#00B5D6"/>
</linearGradient>
<linearGradient id="paint9_linear_312_12" x1="22055.8" y1="27853.9" x2="22622.5" y2="27853.9" gradientUnits="userSpaceOnUse">
<stop stop-color="#03D2F8"/>
<stop offset="0.5" stop-color="#15ADFF"/>
<stop offset="1" stop-color="#00B5D6"/>
</linearGradient>
<linearGradient id="paint10_linear_312_12" x1="33081.7" y1="24768.4" x2="33931.7" y2="24768.4" gradientUnits="userSpaceOnUse">
<stop stop-color="#03D2F8"/>
<stop offset="0.5" stop-color="#15ADFF"/>
<stop offset="1" stop-color="#00B5D6"/>
</linearGradient>
<linearGradient id="paint11_linear_312_12" x1="77098.9" y1="18582.6" x2="79082.3" y2="18582.6" gradientUnits="userSpaceOnUse">
<stop stop-color="#03D2F8"/>
<stop offset="0.5" stop-color="#15ADFF"/>
<stop offset="1" stop-color="#00B5D6"/>
</linearGradient>
</defs>
</svg>
