<svg xmlns="http://www.w3.org/2000/svg" xmlns:xlink="http://www.w3.org/1999/xlink" width="510.287" height="352.247" viewBox="0 0 510.287 352.247"><defs><filter id="a" x="23.296" y="0" width="246.811" height="185.78" filterUnits="userSpaceOnUse"><feOffset dy="1" input="SourceAlpha"/><feGaussianBlur stdDeviation="10" result="b"/><feFlood flood-color="#0a1834" flood-opacity="0.102"/><feComposite operator="in" in2="b"/><feComposite in="SourceGraphic"/></filter><clipPath id="c"><rect width="4.919" height="10.871" fill="none"/></clipPath><clipPath id="d"><rect width="4.333" height="10.871" fill="none"/></clipPath><clipPath id="e"><rect width="9.15" height="5.578" fill="none"/></clipPath><filter id="g" x="0" y="207.604" width="240.291" height="144.644" filterUnits="userSpaceOnUse"><feOffset dy="1" input="SourceAlpha"/><feGaussianBlur stdDeviation="10" result="h"/><feFlood flood-color="#0a1834" flood-opacity="0.078"/><feComposite operator="in" in2="h"/><feComposite in="SourceGraphic"/></filter><clipPath id="i"><rect width="6.607" height="14.6" fill="none"/></clipPath><clipPath id="j"><rect width="11.416" height="6.96" fill="none"/></clipPath><filter id="k" x="265.67" y="75.204" width="244.616" height="246.721" filterUnits="userSpaceOnUse"><feOffset dy="1" input="SourceAlpha"/><feGaussianBlur stdDeviation="10" result="l"/><feFlood flood-color="#ced6e6" flood-opacity="0.4"/><feComposite operator="in" in2="l"/><feComposite in="SourceGraphic"/></filter></defs><g transform="translate(-1017.779 -3430.22)"><g transform="translate(-58.581 10)"><g transform="translate(1223.062 3578.846)"><path d="M-1158.168-874.34s-1.981-29.181-28.39-29.181-26.313,29.181-26.313,29.181S-1186.14-860.739-1158.168-874.34Z" transform="translate(1212.871 936.583)" fill="#dedce2"/><ellipse cx="17.7" cy="17.7" rx="17.7" ry="17.7" transform="translate(8.85)" fill="#dedce2"/></g><g transform="translate(1318.121 3578.846)"><path d="M-1158.168-874.34s-1.981-29.181-28.39-29.181-26.313,29.181-26.313,29.181S-1186.14-860.739-1158.168-874.34Z" transform="translate(1212.871 936.583)" fill="#dedce2"/><ellipse cx="17.7" cy="17.7" rx="17.7" ry="17.7" transform="translate(8.851)" fill="#dedce2"/></g><g transform="translate(1262.073 3572)"><path d="M-1139.156-864.2s-2.67-39.323-38.257-39.323-35.459,39.323-35.459,39.323S-1176.849-845.869-1139.156-864.2Z" transform="translate(1212.871 947.622)" fill="#dedce2"/><ellipse cx="23.851" cy="23.851" rx="23.851" ry="23.851" transform="translate(11.928 0)" fill="#dedce2"/></g></g><g transform="translate(47.829 -64.783)"><g transform="matrix(1, 0, 0, 1, 969.95, 3495)" filter="url(#a)"><rect width="186.811" height="125.78" rx="2" transform="translate(53.3 29)" fill="#fff"/></g><path d="M5.367-5.711v3.7A2.13,2.13,0,0,1,5.084-.906a1.843,1.843,0,0,1-.818.73A2.927,2.927,0,0,1,3,.078,2.423,2.423,0,0,1,1.289-.486,2,2,0,0,1,.68-2.031v-3.68H1.887v3.5a1.464,1.464,0,0,0,.266.969,1.1,1.1,0,0,0,.879.309,1.08,1.08,0,0,0,.861-.311,1.472,1.472,0,0,0,.268-.975V-5.711ZM9.07.078A1.448,1.448,0,0,1,7.863-.48H7.8q.062.547.063.633v1.77H6.672V-4.367h.969l.168.566h.055A1.378,1.378,0,0,1,9.1-4.449a1.417,1.417,0,0,1,1.211.6,2.764,2.764,0,0,1,.438,1.66,3.278,3.278,0,0,1-.205,1.215,1.7,1.7,0,0,1-.584.785A1.5,1.5,0,0,1,9.07.078ZM8.719-3.5a.752.752,0,0,0-.645.271,1.559,1.559,0,0,0-.211.9V-2.2a1.84,1.84,0,0,0,.209,1.008.746.746,0,0,0,.662.3q.8,0,.8-1.32a1.885,1.885,0,0,0-.2-.967A.673.673,0,0,0,8.719-3.5ZM13.508.078q-2.039,0-2.039-2.238a2.388,2.388,0,0,1,.555-1.7,2.081,2.081,0,0,1,1.59-.588,3.031,3.031,0,0,1,1.359.3l-.352.922q-.281-.113-.523-.186a1.687,1.687,0,0,0-.484-.072q-.93,0-.93,1.32,0,1.281.93,1.281a2.12,2.12,0,0,0,.637-.092,2.3,2.3,0,0,0,.586-.287v1.02a1.92,1.92,0,0,1-.584.254A3.284,3.284,0,0,1,13.508.078ZM16.8-2.191a1.833,1.833,0,0,0,.213.98.761.761,0,0,0,.693.332.749.749,0,0,0,.686-.33,1.859,1.859,0,0,0,.209-.982,1.8,1.8,0,0,0-.211-.973.763.763,0,0,0-.691-.324.76.76,0,0,0-.687.322A1.8,1.8,0,0,0,16.8-2.191Zm3.02,0a2.347,2.347,0,0,1-.562,1.668,2.04,2.04,0,0,1-1.566.6A2.191,2.191,0,0,1,16.578-.2a1.832,1.832,0,0,1-.738-.791,2.658,2.658,0,0,1-.258-1.2,2.334,2.334,0,0,1,.559-1.664,2.051,2.051,0,0,1,1.57-.594,2.2,2.2,0,0,1,1.109.273,1.825,1.825,0,0,1,.738.785A2.633,2.633,0,0,1,19.816-2.191ZM24.711,0H23.52V-2.551a1.285,1.285,0,0,0-.158-.709.556.556,0,0,0-.5-.236.721.721,0,0,0-.664.336,2.2,2.2,0,0,0-.207,1.105V0H20.8V-4.367h.91l.16.559h.066a1.21,1.21,0,0,1,.508-.471,1.649,1.649,0,0,1,.762-.17,1.372,1.372,0,0,1,1.328.641h.105a1.18,1.18,0,0,1,.518-.473,1.726,1.726,0,0,1,.771-.168,1.523,1.523,0,0,1,1.123.381,1.672,1.672,0,0,1,.381,1.221V0h-1.2V-2.551a1.285,1.285,0,0,0-.158-.709.556.556,0,0,0-.5-.236.743.743,0,0,0-.654.313,1.773,1.773,0,0,0-.217.992Zm3.895-5.5q0-.582.648-.582T29.9-5.5a.567.567,0,0,1-.162.432.681.681,0,0,1-.486.154Q28.605-4.91,28.605-5.5ZM29.848,0H28.656V-4.367h1.191Zm5.281,0H33.938V-2.551a1.225,1.225,0,0,0-.168-.709.611.611,0,0,0-.535-.236.8.8,0,0,0-.723.334,2.071,2.071,0,0,0-.223,1.107V0H31.1V-4.367h.91l.16.559h.066a1.259,1.259,0,0,1,.549-.479,1.869,1.869,0,0,1,.795-.162,1.527,1.527,0,0,1,1.156.412,1.654,1.654,0,0,1,.395,1.189Zm3.035-.855a.805.805,0,0,0,.688-.275,1.5,1.5,0,0,0,.207-.893v-.145a1.787,1.787,0,0,0-.217-1.006.794.794,0,0,0-.7-.307q-.84,0-.84,1.32a1.836,1.836,0,0,0,.209.98A.719.719,0,0,0,38.164-.855Zm2.008.863a1.807,1.807,0,0,1-.549,1.428,2.4,2.4,0,0,1-1.635.486,4.591,4.591,0,0,1-1.633-.258V.711a4.32,4.32,0,0,0,1.7.336q.918,0,.918-.992V-.031l.035-.535h-.035a1.381,1.381,0,0,1-1.238.645,1.407,1.407,0,0,1-1.217-.605,2.792,2.792,0,0,1-.432-1.648,2.75,2.75,0,0,1,.447-1.674,1.453,1.453,0,0,1,1.232-.6,1.475,1.475,0,0,1,1.266.641h.031l.1-.559h1.008ZM47.406,0H46.215V-2.551a1.285,1.285,0,0,0-.158-.709.556.556,0,0,0-.5-.236.721.721,0,0,0-.664.336,2.2,2.2,0,0,0-.207,1.105V0H43.5V-4.367h.91l.16.559h.066a1.21,1.21,0,0,1,.508-.471,1.649,1.649,0,0,1,.762-.17,1.372,1.372,0,0,1,1.328.641h.105a1.18,1.18,0,0,1,.518-.473,1.726,1.726,0,0,1,.771-.168,1.523,1.523,0,0,1,1.123.381,1.672,1.672,0,0,1,.381,1.221V0h-1.2V-2.551a1.285,1.285,0,0,0-.158-.709.556.556,0,0,0-.5-.236.743.743,0,0,0-.654.313,1.773,1.773,0,0,0-.217.992Zm6.719,0-.23-.594h-.031a1.76,1.76,0,0,1-.619.525,2,2,0,0,1-.83.146,1.342,1.342,0,0,1-.99-.359A1.38,1.38,0,0,1,51.063-1.3a1.152,1.152,0,0,1,.486-1.025A2.818,2.818,0,0,1,53.016-2.7l.758-.023V-2.91a.594.594,0,0,0-.68-.664,3.1,3.1,0,0,0-1.23.316l-.395-.8a3.55,3.55,0,0,1,1.672-.395,2.083,2.083,0,0,1,1.348.383,1.415,1.415,0,0,1,.469,1.164V0Zm-.352-2.023-.461.016a1.476,1.476,0,0,0-.773.188.589.589,0,0,0-.254.523q0,.5.578.5a.916.916,0,0,0,.662-.238.837.837,0,0,0,.248-.633Zm4.25,1.152a2.583,2.583,0,0,0,.75-.137v.887a2.674,2.674,0,0,1-1.094.2,1.339,1.339,0,0,1-1.041-.361,1.573,1.573,0,0,1-.326-1.084V-3.473h-.57v-.5l.656-.4.344-.922H57.5v.93h1.223v.895H57.5v2.105a.465.465,0,0,0,.143.375A.563.563,0,0,0,58.023-.871ZM61.43.078q-2.039,0-2.039-2.238a2.388,2.388,0,0,1,.555-1.7,2.081,2.081,0,0,1,1.59-.588,3.031,3.031,0,0,1,1.359.3l-.352.922q-.281-.113-.523-.186a1.687,1.687,0,0,0-.484-.072q-.93,0-.93,1.32,0,1.281.93,1.281a2.12,2.12,0,0,0,.637-.092,2.3,2.3,0,0,0,.586-.287v1.02a1.92,1.92,0,0,1-.584.254A3.284,3.284,0,0,1,61.43.078ZM67.8,0H66.609V-2.551q0-.945-.7-.945a.8.8,0,0,0-.723.34,2.076,2.076,0,0,0-.223,1.1V0H63.77V-6.078h1.191V-4.84q0,.145-.027.68l-.027.352h.063a1.38,1.38,0,0,1,1.266-.641,1.547,1.547,0,0,1,1.168.414,1.645,1.645,0,0,1,.4,1.188Zm3.035-3.6a.756.756,0,0,0-.594.24A1.112,1.112,0,0,0,70-2.68h1.672a.993.993,0,0,0-.23-.682A.78.78,0,0,0,70.836-3.6ZM71,.078A2.254,2.254,0,0,1,69.355-.5a2.2,2.2,0,0,1-.594-1.648,2.424,2.424,0,0,1,.549-1.7,1.954,1.954,0,0,1,1.518-.6,1.924,1.924,0,0,1,1.441.527,2,2,0,0,1,.516,1.457v.578H69.969a1.147,1.147,0,0,0,.3.793,1.058,1.058,0,0,0,.789.285A3.276,3.276,0,0,0,71.8-.891a3.733,3.733,0,0,0,.734-.262V-.23A2.8,2.8,0,0,1,71.871,0,4.212,4.212,0,0,1,71,.078ZM76.8-1.3a1.2,1.2,0,0,1-.467,1.023,2.306,2.306,0,0,1-1.4.352,4.386,4.386,0,0,1-.812-.064A3.073,3.073,0,0,1,73.5-.176V-1.16a4.153,4.153,0,0,0,.748.262,3.029,3.029,0,0,0,.732.105q.648,0,.648-.375a.313.313,0,0,0-.086-.229,1.246,1.246,0,0,0-.3-.2q-.211-.111-.562-.26a3.534,3.534,0,0,1-.74-.391,1.1,1.1,0,0,1-.344-.412,1.36,1.36,0,0,1-.107-.572,1.037,1.037,0,0,1,.451-.9,2.2,2.2,0,0,1,1.279-.318,3.631,3.631,0,0,1,1.535.344l-.359.859q-.328-.141-.613-.23a1.926,1.926,0,0,0-.582-.09q-.527,0-.527.285a.335.335,0,0,0,.17.277,4.621,4.621,0,0,0,.744.348,3.457,3.457,0,0,1,.75.387,1.144,1.144,0,0,1,.352.414A1.272,1.272,0,0,1,76.8-1.3Z" transform="translate(1037.872 3539.842)" stroke="rgba(0,0,0,0)" stroke-width="1"/><path d="M.719,0V-5.711H1.93V-1H4.246V0Zm7.2,0-.23-.594H7.656a1.76,1.76,0,0,1-.619.525,2,2,0,0,1-.83.146,1.342,1.342,0,0,1-.99-.359A1.38,1.38,0,0,1,4.855-1.3,1.152,1.152,0,0,1,5.342-2.33,2.818,2.818,0,0,1,6.809-2.7l.758-.023V-2.91a.594.594,0,0,0-.68-.664,3.1,3.1,0,0,0-1.23.316l-.395-.8a3.55,3.55,0,0,1,1.672-.395,2.083,2.083,0,0,1,1.348.383A1.415,1.415,0,0,1,8.75-2.91V0ZM7.566-2.023l-.461.016a1.476,1.476,0,0,0-.773.188.589.589,0,0,0-.254.523q0,.5.578.5a.916.916,0,0,0,.662-.238.837.837,0,0,0,.248-.633Zm4.25,1.152a2.583,2.583,0,0,0,.75-.137v.887a2.674,2.674,0,0,1-1.094.2,1.339,1.339,0,0,1-1.041-.361,1.573,1.573,0,0,1-.326-1.084V-3.473h-.57v-.5l.656-.4.344-.922H11.3v.93H12.52v.895H11.3v2.105a.465.465,0,0,0,.143.375A.563.563,0,0,0,11.816-.871ZM15.258-3.6a.756.756,0,0,0-.594.24,1.112,1.112,0,0,0-.246.682H16.09a.993.993,0,0,0-.23-.682A.78.78,0,0,0,15.258-3.6Zm.168,3.68A2.254,2.254,0,0,1,13.777-.5a2.2,2.2,0,0,1-.594-1.648,2.424,2.424,0,0,1,.549-1.7,1.954,1.954,0,0,1,1.518-.6,1.924,1.924,0,0,1,1.441.527,2,2,0,0,1,.516,1.457v.578H14.391a1.147,1.147,0,0,0,.3.793,1.058,1.058,0,0,0,.789.285,3.276,3.276,0,0,0,.746-.082,3.733,3.733,0,0,0,.734-.262V-.23A2.8,2.8,0,0,1,16.293,0,4.212,4.212,0,0,1,15.426.078Zm5.8-1.375a1.2,1.2,0,0,1-.467,1.023,2.306,2.306,0,0,1-1.4.352,4.386,4.386,0,0,1-.812-.064,3.073,3.073,0,0,1-.629-.189V-1.16a4.153,4.153,0,0,0,.748.262,3.029,3.029,0,0,0,.732.105q.648,0,.648-.375a.313.313,0,0,0-.086-.229,1.246,1.246,0,0,0-.3-.2q-.211-.111-.562-.26a3.534,3.534,0,0,1-.74-.391,1.1,1.1,0,0,1-.344-.412,1.36,1.36,0,0,1-.107-.572,1.037,1.037,0,0,1,.451-.9,2.2,2.2,0,0,1,1.279-.318,3.631,3.631,0,0,1,1.535.344l-.359.859q-.328-.141-.613-.23a1.926,1.926,0,0,0-.582-.09q-.527,0-.527.285a.335.335,0,0,0,.17.277,4.621,4.621,0,0,0,.744.348,3.457,3.457,0,0,1,.75.387,1.144,1.144,0,0,1,.352.414A1.272,1.272,0,0,1,21.223-1.3Zm2.77.426a2.583,2.583,0,0,0,.75-.137v.887a2.674,2.674,0,0,1-1.094.2,1.339,1.339,0,0,1-1.041-.361,1.573,1.573,0,0,1-.326-1.084V-3.473h-.57v-.5l.656-.4.344-.922h.762v.93H24.7v.895H23.473v2.105a.465.465,0,0,0,.143.375A.563.563,0,0,0,23.992-.871Zm6.148-3.578a1.921,1.921,0,0,1,.4.035L30.453-3.3a1.365,1.365,0,0,0-.352-.039,1.263,1.263,0,0,0-.889.293,1.059,1.059,0,0,0-.318.82V0H27.7V-4.367h.9l.176.734h.059a1.642,1.642,0,0,1,.549-.592A1.353,1.353,0,0,1,30.141-4.449Zm2.926.848a.756.756,0,0,0-.594.24,1.112,1.112,0,0,0-.246.682H33.9a.993.993,0,0,0-.23-.682A.78.78,0,0,0,33.066-3.6Zm.168,3.68A2.254,2.254,0,0,1,31.586-.5a2.2,2.2,0,0,1-.594-1.648,2.424,2.424,0,0,1,.549-1.7,1.954,1.954,0,0,1,1.518-.6,1.924,1.924,0,0,1,1.441.527,2,2,0,0,1,.516,1.457v.578H32.2a1.147,1.147,0,0,0,.3.793,1.058,1.058,0,0,0,.789.285,3.276,3.276,0,0,0,.746-.082,3.733,3.733,0,0,0,.734-.262V-.23A2.8,2.8,0,0,1,34.1,0,4.212,4.212,0,0,1,33.234.078Zm5.8-1.375a1.2,1.2,0,0,1-.467,1.023,2.306,2.306,0,0,1-1.4.352,4.386,4.386,0,0,1-.812-.064,3.073,3.073,0,0,1-.629-.189V-1.16a4.153,4.153,0,0,0,.748.262,3.029,3.029,0,0,0,.732.105q.648,0,.648-.375A.313.313,0,0,0,37.77-1.4a1.246,1.246,0,0,0-.3-.2q-.211-.111-.562-.26a3.534,3.534,0,0,1-.74-.391,1.1,1.1,0,0,1-.344-.412,1.36,1.36,0,0,1-.107-.572,1.037,1.037,0,0,1,.451-.9,2.2,2.2,0,0,1,1.279-.318,3.631,3.631,0,0,1,1.535.344l-.359.859q-.328-.141-.613-.23a1.926,1.926,0,0,0-.582-.09q-.527,0-.527.285a.335.335,0,0,0,.17.277,4.621,4.621,0,0,0,.744.348,3.457,3.457,0,0,1,.75.387,1.144,1.144,0,0,1,.352.414A1.272,1.272,0,0,1,39.031-1.3ZM43.055,0l-.16-.559h-.062a1.257,1.257,0,0,1-.543.471,1.854,1.854,0,0,1-.8.166,1.525,1.525,0,0,1-1.16-.412,1.658,1.658,0,0,1-.391-1.186V-4.367h1.191v2.551a1.225,1.225,0,0,0,.168.709.611.611,0,0,0,.535.236.8.8,0,0,0,.723-.334,2.071,2.071,0,0,0,.223-1.107V-4.367h1.191V0ZM46.41,0H45.219V-6.078H46.41ZM49.5-.871a2.583,2.583,0,0,0,.75-.137v.887a2.674,2.674,0,0,1-1.094.2,1.339,1.339,0,0,1-1.041-.361,1.573,1.573,0,0,1-.326-1.084V-3.473h-.57v-.5l.656-.4.344-.922h.762v.93H50.2v.895H48.98v2.105a.465.465,0,0,0,.143.375A.563.563,0,0,0,49.5-.871ZM54.18-1.3a1.2,1.2,0,0,1-.467,1.023,2.306,2.306,0,0,1-1.4.352A4.386,4.386,0,0,1,51.5.014a3.073,3.073,0,0,1-.629-.189V-1.16a4.153,4.153,0,0,0,.748.262,3.029,3.029,0,0,0,.732.105Q53-.793,53-1.168a.313.313,0,0,0-.086-.229,1.246,1.246,0,0,0-.3-.2q-.211-.111-.562-.26a3.534,3.534,0,0,1-.74-.391,1.1,1.1,0,0,1-.344-.412,1.36,1.36,0,0,1-.107-.572,1.037,1.037,0,0,1,.451-.9A2.2,2.2,0,0,1,52.6-4.449a3.631,3.631,0,0,1,1.535.344l-.359.859q-.328-.141-.613-.23a1.926,1.926,0,0,0-.582-.09q-.527,0-.527.285a.335.335,0,0,0,.17.277,4.621,4.621,0,0,0,.744.348,3.457,3.457,0,0,1,.75.387,1.144,1.144,0,0,1,.352.414A1.272,1.272,0,0,1,54.18-1.3Z" transform="translate(1137.479 3539.842)" stroke="rgba(0,0,0,0)" stroke-width="1" opacity="0.4"/><rect width="88.737" height="1.553" rx="0.776" transform="translate(1032.243 3551.893)" fill="#009aff"/><g transform="translate(1038.872 3629.636)" opacity="0.5"><g transform="translate(0 0)"><g transform="translate(4.196 0)"><g transform="translate(0)" clip-path="url(#c)"><path d="M-142.757-896.308a9.059,9.059,0,0,1-2.283,1.951,9.072,9.072,0,0,1-2.284-1.951,9.13,9.13,0,0,1-2.081-7.329,7.867,7.867,0,0,0,2.555-.563,7.878,7.878,0,0,0,1.81-1.027,7.873,7.873,0,0,0,1.81,1.027,7.859,7.859,0,0,0,2.555.563,9.131,9.131,0,0,1-2.081,7.329Z" transform="translate(145.04 905.227)" fill="#281d40" fill-rule="evenodd"/></g></g><g transform="translate(149.498 905.546)" fill="none" stroke-linejoin="round" fill-rule="evenodd"><path d="M-143.153-896.831a8.527,8.527,0,0,1-2.149,1.837,8.537,8.537,0,0,1-2.15-1.837,8.594,8.594,0,0,1-1.958-6.9,7.408,7.408,0,0,0,2.4-.53,7.41,7.41,0,0,0,1.7-.967,7.4,7.4,0,0,0,1.7.967,7.4,7.4,0,0,0,2.4.53,8.6,8.6,0,0,1-1.959,6.9Z" stroke="none"/><path d="M -145.3019561767578 -894.9946899414063 C -144.4742126464844 -895.4951171875 -143.7512817382813 -896.1128540039063 -143.1525726318359 -896.8314208984375 C -140.9250946044922 -899.5034790039063 -141.0020751953125 -902.1638793945313 -141.1935882568359 -903.7301635742188 C -142.0226898193359 -903.7720947265625 -142.8303070068359 -903.94970703125 -143.5984039306641 -904.2599487304688 C -144.2062683105469 -904.5051879882813 -144.7781677246094 -904.830078125 -145.3018035888672 -905.2269897460938 C -145.8254699707031 -904.830078125 -146.3974914550781 -904.5051879882813 -147.0050964355469 -904.2599487304688 C -147.7733306884766 -903.9500122070313 -148.5810699462891 -903.7720947265625 -149.409912109375 -903.7301635742188 C -149.6016998291016 -902.1638793945313 -149.6786956787109 -899.5034790039063 -147.4514770507813 -896.8314208984375 C -146.8529052734375 -896.1132202148438 -146.1299591064453 -895.4955444335938 -145.3019561767578 -894.9946899414063 M -145.3019561767578 -893.9946899414063 C -145.481201171875 -893.9946899414063 -145.6604156494141 -894.0427856445313 -145.8195190429688 -894.1390380859375 C -146.7426147460938 -894.6974487304688 -147.5501403808594 -895.3878784179688 -148.2196502685547 -896.191162109375 C -149.3061981201172 -897.4947509765625 -150.0125274658203 -898.9452514648438 -150.3190002441406 -900.5023193359375 C -150.5917510986328 -901.88818359375 -150.4972839355469 -903.0775756835938 -150.4025115966797 -903.8516845703125 C -150.3434295654297 -904.334228515625 -149.9459228515625 -904.704345703125 -149.4604339599609 -904.7288818359375 C -148.7435760498047 -904.76513671875 -148.0433502197266 -904.9193725585938 -147.3792419433594 -905.1873168945313 C -146.8546752929688 -905.3990478515625 -146.3589019775391 -905.6805419921875 -145.9058532714844 -906.02392578125 C -145.7272796630859 -906.1593017578125 -145.5145111083984 -906.2269897460938 -145.3018035888672 -906.2269897460938 C -145.0890502929688 -906.2269897460938 -144.8763580322266 -906.1593017578125 -144.6977386474609 -906.02392578125 C -144.2445678710938 -905.680419921875 -143.7488098144531 -905.39892578125 -143.2242584228516 -905.1873168945313 C -142.5608673095703 -904.9193725585938 -141.8607788085938 -904.7651977539063 -141.1430816650391 -904.7288818359375 C -140.6575317382813 -904.704345703125 -140.2599792480469 -904.3341064453125 -140.2009735107422 -903.8515014648438 C -140.1063079833984 -903.0773315429688 -140.0120086669922 -901.8878173828125 -140.2847900390625 -900.5023193359375 C -140.5913696289063 -898.9451293945313 -141.2977905273438 -897.4946899414063 -142.3844604492188 -896.1911010742188 C -143.0540924072266 -895.3873901367188 -143.8616638183594 -894.6968994140625 -144.7845916748047 -894.138916015625 C -144.9436340332031 -894.0427856445313 -145.122802734375 -893.9946899414063 -145.3019561767578 -893.9946899414063 Z" stroke="none" fill="#281d40"/></g></g><path d="M-6105.329,419.046v10.307" transform="translate(6109.886 -418.727)" fill="none" stroke="#281d40" stroke-width="1"/></g><g transform="translate(1038.837 3583.827)" opacity="0.5"><g transform="translate(0 0)"><g clip-path="url(#d)"><path d="M-142.946-896.308a8.875,8.875,0,0,1-2.22,1.951,8.885,8.885,0,0,1-2.22-1.951,9.323,9.323,0,0,1-2.022-7.329,7.462,7.462,0,0,0,2.483-.563,7.6,7.6,0,0,0,1.759-1.028,7.6,7.6,0,0,0,1.759,1.028,7.455,7.455,0,0,0,2.483.563,9.324,9.324,0,0,1-2.023,7.329Z" transform="translate(149.498 905.227)" fill="#281d40" fill-rule="evenodd"/></g><g transform="translate(149.691 905.469)" fill="none" stroke-linejoin="round" fill-rule="evenodd"><path d="M-143.058-896.7a8.655,8.655,0,0,1-2.181,1.864,8.666,8.666,0,0,1-2.182-1.864,8.725,8.725,0,0,1-1.988-7,7.516,7.516,0,0,0,2.441-.538,7.528,7.528,0,0,0,1.729-.982,7.523,7.523,0,0,0,1.729.982,7.507,7.507,0,0,0,2.441.538,8.726,8.726,0,0,1-1.988,7Z" stroke="none"/><path d="M -145.2394714355469 -894.8402709960938 C -144.3994140625 -895.3482055664063 -143.6657104492188 -895.975341796875 -143.0580902099609 -896.7046508789063 C -140.7974548339844 -899.4169921875 -140.8755798339844 -902.1175537109375 -141.0699615478516 -903.7075805664063 C -141.9114227294922 -903.7500610351563 -142.7310180664063 -903.9303588867188 -143.5105590820313 -904.2451782226563 C -144.1274871826172 -904.4943237304688 -144.7078704833984 -904.8240966796875 -145.2393341064453 -905.2269897460938 C -145.7707824707031 -904.8240966796875 -146.3513031005859 -904.4943237304688 -146.9679412841797 -904.2451782226563 C -147.7476501464844 -903.9306030273438 -148.5673828125 -903.7500610351563 -149.4085693359375 -903.7075805664063 C -149.6032104492188 -902.1175537109375 -149.6813354492188 -899.4169921875 -147.4209747314453 -896.7046508789063 C -146.8135223388672 -895.9757080078125 -146.0798034667969 -895.3486938476563 -145.2394714355469 -894.8402709960938 M -145.2394866943359 -893.8402709960938 C -145.4187622070313 -893.8402709960938 -145.5979919433594 -893.8883666992188 -145.7571258544922 -893.9846801757813 C -146.6924896240234 -894.5505981445313 -147.5107574462891 -895.2503662109375 -148.1891937255859 -896.064453125 C -149.290283203125 -897.3857421875 -150.0060424804688 -898.8558349609375 -150.3165893554688 -900.4338989257813 C -150.5929870605469 -901.8385009765625 -150.4972229003906 -903.0443115234375 -150.4011535644531 -903.8291015625 C -150.3420867919922 -904.3116455078125 -149.9445343017578 -904.6817626953125 -149.4589996337891 -904.706298828125 C -148.7298583984375 -904.7431030273438 -148.0176391601563 -904.8999633789063 -147.3421020507813 -905.1725463867188 C -146.8085479736328 -905.3881225585938 -146.3041839599609 -905.6746215820313 -145.8434600830078 -906.0238647460938 C -145.6648406982422 -906.1593017578125 -145.4520874023438 -906.2269897460938 -145.2393341064453 -906.2269897460938 C -145.0265808105469 -906.2269897460938 -144.8138275146484 -906.1593017578125 -144.6352233886719 -906.0238647460938 C -144.17431640625 -905.6744995117188 -143.6699371337891 -905.3880004882813 -143.1360931396484 -905.1724243164063 C -142.4614715576172 -904.8999633789063 -141.7493591308594 -904.7431640625 -141.0195465087891 -904.706298828125 C -140.5339508056641 -904.6817626953125 -140.1363525390625 -904.3115234375 -140.0773620605469 -903.8289184570313 C -139.9813995361328 -903.0440673828125 -139.8857879638672 -901.8381958007813 -140.1622161865234 -900.433837890625 C -140.4728393554688 -898.855712890625 -141.1887054443359 -897.3856201171875 -142.2899169921875 -896.0643920898438 C -142.9686584472656 -895.249755859375 -143.7869873046875 -894.5499267578125 -144.7220611572266 -893.9845581054688 C -144.881103515625 -893.8883666992188 -145.0603179931641 -893.8402709960938 -145.2394866943359 -893.8402709960938 Z" stroke="none" fill="#281d40"/></g></g><path d="M-6105.329,419.046v10.461" transform="translate(6109.685 -418.804)" fill="none" stroke="#281d40" stroke-width="1"/></g><g transform="translate(1038.837 3568.057)" opacity="0.5"><g transform="translate(0 0)"><g transform="translate(0 5.293)"><g transform="translate(0 0)" clip-path="url(#e)"><path d="M-142.58-897.281a9.075,9.075,0,0,1-2.343,1.738,9.085,9.085,0,0,1-2.344-1.738,7.369,7.369,0,0,1-2.135-6.53,9.119,9.119,0,0,0,2.622-.5,8.479,8.479,0,0,0,1.857-.915,8.475,8.475,0,0,0,1.857.915,9.108,9.108,0,0,0,2.622.5,7.37,7.37,0,0,1-2.136,6.53Z" transform="translate(149.498 901.12)" fill="#281d40" fill-rule="evenodd"/></g></g><g transform="translate(149.732 905.227)" fill="none" stroke-linejoin="round" fill-rule="evenodd"><path d="M-142.934-896.542a8.824,8.824,0,0,1-2.224,1.9,8.832,8.832,0,0,1-2.224-1.9,8.891,8.891,0,0,1-2.026-7.137,7.661,7.661,0,0,0,2.488-.548,7.672,7.672,0,0,0,1.762-1,7.666,7.666,0,0,0,1.762,1,7.649,7.649,0,0,0,2.488.548,8.892,8.892,0,0,1-2.027,7.137Z" stroke="none"/><path d="M -145.1571502685547 -894.6417846679688 C -144.3008575439453 -895.1594848632813 -143.5529632568359 -895.798583984375 -142.9335784912109 -896.5418090820313 C -140.6292419433594 -899.3060302734375 -140.7088928222656 -902.0582885742188 -140.9070129394531 -903.6787109375 C -141.7647247314453 -903.7219848632813 -142.6001892089844 -903.9057006835938 -143.3948059082031 -904.2266845703125 C -144.0236663818359 -904.48046875 -144.6152648925781 -904.8165893554688 -145.1569976806641 -905.2271118164063 C -145.69873046875 -904.8165893554688 -146.2904968261719 -904.48046875 -146.9190673828125 -904.2266845703125 C -147.7138366699219 -903.9060668945313 -148.5494079589844 -903.7219848632813 -149.4068603515625 -903.6787109375 C -149.6052703857422 -902.0582885742188 -149.6849365234375 -899.3060302734375 -147.3808746337891 -896.5418090820313 C -146.7616271972656 -895.7989501953125 -146.0137481689453 -895.1598510742188 -145.1571502685547 -894.6417846679688 M -145.1571502685547 -893.6417846679688 C -145.3363800048828 -893.6417846679688 -145.5155487060547 -893.6898803710938 -145.6746520996094 -893.7861328125 C -146.6260528564453 -894.3615112304688 -147.4585418701172 -895.0732421875 -148.1490020751953 -895.9014892578125 C -149.2693328857422 -897.24560546875 -149.9975738525391 -898.740966796875 -150.3134765625 -900.3460693359375 C -150.5946807861328 -901.77490234375 -150.4972229003906 -903.001708984375 -150.3994445800781 -903.8002319335938 C -150.3403625488281 -904.2827758789063 -149.9427947998047 -904.6529541015625 -149.457275390625 -904.6774291992188 C -148.7120361328125 -904.7150268554688 -147.9839324951172 -904.8754272460938 -147.2931823730469 -905.154052734375 C -146.7477722167969 -905.374267578125 -146.232177734375 -905.6670532226563 -145.7609710693359 -906.0241088867188 C -145.5823822021484 -906.159423828125 -145.3696899414063 -906.2271118164063 -145.1569976806641 -906.2271118164063 C -144.9443054199219 -906.2271118164063 -144.7316131591797 -906.159423828125 -144.5530242919922 -906.0241088867188 C -144.0816192626953 -905.6668701171875 -143.5660247802734 -905.3741455078125 -143.0205841064453 -905.154052734375 C -142.3308258056641 -904.8754272460938 -141.6028747558594 -904.715087890625 -140.8566131591797 -904.6774291992188 C -140.3710021972656 -904.6529541015625 -139.9734039306641 -904.28271484375 -139.9143981933594 -903.800048828125 C -139.8167572021484 -903.00146484375 -139.7194671630859 -901.7745361328125 -140.0007019042969 -900.3460083007813 C -140.3167266845703 -898.7408447265625 -141.0450439453125 -897.2454833984375 -142.1654663085938 -895.9014892578125 C -142.8559265136719 -895.072998046875 -143.6884460449219 -894.3612060546875 -144.6397705078125 -893.7860107421875 C -144.7988128662109 -893.6898803710938 -144.9780120849609 -893.6417846679688 -145.1571502685547 -893.6417846679688 Z" stroke="none" fill="#281d40"/></g></g><path d="M-6106.337,419.046h-8.454" transform="translate(6115.12 -413.93)" fill="none" stroke="#281d40" stroke-linejoin="round" stroke-width="1"/></g><g transform="translate(1038.837 3613.866)" opacity="0.5"><g transform="translate(0 0)"><g transform="translate(0 5.293)"><g transform="translate(0 0)" clip-path="url(#e)"><path d="M-142.58-897.281a9.075,9.075,0,0,1-2.343,1.738,9.085,9.085,0,0,1-2.344-1.738,7.369,7.369,0,0,1-2.135-6.53,9.119,9.119,0,0,0,2.622-.5,8.479,8.479,0,0,0,1.857-.915,8.475,8.475,0,0,0,1.857.915,9.108,9.108,0,0,0,2.622.5,7.37,7.37,0,0,1-2.136,6.53Z" transform="translate(149.498 901.12)" fill="#281d40" fill-rule="evenodd"/></g></g><g transform="translate(149.732 905.227)" fill="none" stroke-linejoin="round" fill-rule="evenodd"><path d="M-142.934-896.542a8.824,8.824,0,0,1-2.224,1.9,8.832,8.832,0,0,1-2.224-1.9,8.891,8.891,0,0,1-2.026-7.137,7.661,7.661,0,0,0,2.488-.548,7.672,7.672,0,0,0,1.762-1,7.666,7.666,0,0,0,1.762,1,7.649,7.649,0,0,0,2.488.548,8.892,8.892,0,0,1-2.027,7.137Z" stroke="none"/><path d="M -145.1571502685547 -894.6417846679688 C -144.3008575439453 -895.1594848632813 -143.5529632568359 -895.798583984375 -142.9335784912109 -896.5418090820313 C -140.6292419433594 -899.3060302734375 -140.7088928222656 -902.0582885742188 -140.9070129394531 -903.6787109375 C -141.7647247314453 -903.7219848632813 -142.6001892089844 -903.9057006835938 -143.3948059082031 -904.2266845703125 C -144.0236663818359 -904.48046875 -144.6152648925781 -904.8165893554688 -145.1569976806641 -905.2271118164063 C -145.69873046875 -904.8165893554688 -146.2904968261719 -904.48046875 -146.9190673828125 -904.2266845703125 C -147.7138366699219 -903.9060668945313 -148.5494079589844 -903.7219848632813 -149.4068603515625 -903.6787109375 C -149.6052703857422 -902.0582885742188 -149.6849365234375 -899.3060302734375 -147.3808746337891 -896.5418090820313 C -146.7616271972656 -895.7989501953125 -146.0137481689453 -895.1598510742188 -145.1571502685547 -894.6417846679688 M -145.1571502685547 -893.6417846679688 C -145.3363800048828 -893.6417846679688 -145.5155487060547 -893.6898803710938 -145.6746520996094 -893.7861328125 C -146.6260528564453 -894.3615112304688 -147.4585418701172 -895.0732421875 -148.1490020751953 -895.9014892578125 C -149.2693328857422 -897.24560546875 -149.9975738525391 -898.740966796875 -150.3134765625 -900.3460693359375 C -150.5946807861328 -901.77490234375 -150.4972229003906 -903.001708984375 -150.3994445800781 -903.8002319335938 C -150.3403625488281 -904.2827758789063 -149.9427947998047 -904.6529541015625 -149.457275390625 -904.6774291992188 C -148.7120361328125 -904.7150268554688 -147.9839324951172 -904.8754272460938 -147.2931823730469 -905.154052734375 C -146.7477722167969 -905.374267578125 -146.232177734375 -905.6670532226563 -145.7609710693359 -906.0241088867188 C -145.5823822021484 -906.159423828125 -145.3696899414063 -906.2271118164063 -145.1569976806641 -906.2271118164063 C -144.9443054199219 -906.2271118164063 -144.7316131591797 -906.159423828125 -144.5530242919922 -906.0241088867188 C -144.0816192626953 -905.6668701171875 -143.5660247802734 -905.3741455078125 -143.0205841064453 -905.154052734375 C -142.3308258056641 -904.8754272460938 -141.6028747558594 -904.715087890625 -140.8566131591797 -904.6774291992188 C -140.3710021972656 -904.6529541015625 -139.9734039306641 -904.28271484375 -139.9143981933594 -903.800048828125 C -139.8167572021484 -903.00146484375 -139.7194671630859 -901.7745361328125 -140.0007019042969 -900.3460083007813 C -140.3167266845703 -898.7408447265625 -141.0450439453125 -897.2454833984375 -142.1654663085938 -895.9014892578125 C -142.8559265136719 -895.072998046875 -143.6884460449219 -894.3612060546875 -144.6397705078125 -893.7860107421875 C -144.7988128662109 -893.6898803710938 -144.9780120849609 -893.6417846679688 -145.1571502685547 -893.6417846679688 Z" stroke="none" fill="#281d40"/></g></g><path d="M-6106.337,419.046h-8.454" transform="translate(6115.12 -413.93)" fill="none" stroke="#281d40" stroke-linejoin="round" stroke-width="1"/></g><rect width="67.587" height="6.759" rx="3.379" transform="translate(1059.038 3570.113)" fill="#edeff2"/><rect width="37.587" height="5" rx="2.5" transform="translate(1157.071 3573.917)" fill="#d3d6db"/><rect width="37.587" height="5" rx="2.5" transform="translate(1157.071 3620.301)" fill="#d3d6db"/><rect width="25.655" height="5" rx="2.5" transform="translate(1163.037 3583.262)" fill="#d3d6db"/><rect width="25.655" height="5" rx="2.5" transform="translate(1163.037 3629.646)" fill="#d3d6db"/><rect width="51.587" height="6.759" rx="3.379" transform="translate(1059.038 3615.922)" fill="#edeff2"/><rect width="59.327" height="6.759" rx="3.379" transform="translate(1059.038 3585.883)" fill="#edeff2"/><rect width="65.362" height="6.759" rx="3.379" transform="translate(1059.038 3631.692)" fill="#edeff2"/></g><g transform="translate(-27.509 -42.083)"><g transform="matrix(1, 0, 0, 1, 1045.29, 3472.3)" filter="url(#g)"><path d="M3.386,0H176.9a3.386,3.386,0,0,1,3.386,3.386V81.258a3.386,3.386,0,0,1-3.386,3.386H3.386A3.386,3.386,0,0,1,0,81.258V3.386A3.386,3.386,0,0,1,3.386,0Z" transform="translate(30 236.6)" fill="#fff"/></g><path d="M1.93-3.176H2.32a1.494,1.494,0,0,0,.848-.191.683.683,0,0,0,.273-.6.625.625,0,0,0-.279-.578A1.7,1.7,0,0,0,2.3-4.719H1.93Zm0,.984V0H.719V-5.711H2.383a2.848,2.848,0,0,1,1.723.424A1.513,1.513,0,0,1,4.664-4a1.515,1.515,0,0,1-.277.9,1.835,1.835,0,0,1-.785.615L5.281,0H3.938L2.574-2.191ZM7.715-3.6a.756.756,0,0,0-.594.24,1.112,1.112,0,0,0-.246.682H8.547a.993.993,0,0,0-.23-.682A.78.78,0,0,0,7.715-3.6ZM7.883.078A2.254,2.254,0,0,1,6.234-.5a2.2,2.2,0,0,1-.594-1.648,2.424,2.424,0,0,1,.549-1.7,1.954,1.954,0,0,1,1.518-.6,1.924,1.924,0,0,1,1.441.527,2,2,0,0,1,.516,1.457v.578H6.848a1.147,1.147,0,0,0,.3.793,1.058,1.058,0,0,0,.789.285,3.276,3.276,0,0,0,.746-.082,3.733,3.733,0,0,0,.734-.262V-.23A2.8,2.8,0,0,1,8.75,0,4.212,4.212,0,0,1,7.883.078Zm5.148,0A1.448,1.448,0,0,1,11.824-.48h-.062q.063.547.063.633v1.77H10.633V-4.367H11.6l.168.566h.055a1.378,1.378,0,0,1,1.238-.648,1.417,1.417,0,0,1,1.211.6,2.764,2.764,0,0,1,.438,1.66,3.278,3.278,0,0,1-.205,1.215,1.7,1.7,0,0,1-.584.785A1.5,1.5,0,0,1,13.031.078ZM12.68-3.5a.752.752,0,0,0-.645.271,1.559,1.559,0,0,0-.211.9V-2.2a1.84,1.84,0,0,0,.209,1.008.746.746,0,0,0,.662.3q.8,0,.8-1.32a1.885,1.885,0,0,0-.2-.967A.673.673,0,0,0,12.68-3.5Zm3.965,1.3a1.833,1.833,0,0,0,.213.98.761.761,0,0,0,.693.332.749.749,0,0,0,.686-.33,1.859,1.859,0,0,0,.209-.982,1.8,1.8,0,0,0-.211-.973.763.763,0,0,0-.691-.324.76.76,0,0,0-.687.322A1.8,1.8,0,0,0,16.645-2.191Zm3.02,0A2.347,2.347,0,0,1,19.1-.523a2.04,2.04,0,0,1-1.566.6A2.191,2.191,0,0,1,16.426-.2a1.832,1.832,0,0,1-.738-.791,2.658,2.658,0,0,1-.258-1.2,2.334,2.334,0,0,1,.559-1.664,2.051,2.051,0,0,1,1.57-.594,2.2,2.2,0,0,1,1.109.273,1.825,1.825,0,0,1,.738.785A2.633,2.633,0,0,1,19.664-2.191Zm3.422-2.258a1.921,1.921,0,0,1,.4.035L23.4-3.3a1.365,1.365,0,0,0-.352-.039,1.263,1.263,0,0,0-.889.293,1.059,1.059,0,0,0-.318.82V0H20.648V-4.367h.9l.176.734h.059a1.642,1.642,0,0,1,.549-.592A1.353,1.353,0,0,1,23.086-4.449ZM26.121-.871a2.583,2.583,0,0,0,.75-.137v.887a2.674,2.674,0,0,1-1.094.2,1.339,1.339,0,0,1-1.041-.361,1.573,1.573,0,0,1-.326-1.084V-3.473h-.57v-.5l.656-.4L24.84-5.3H25.6v.93h1.223v.895H25.6v2.105a.465.465,0,0,0,.143.375A.563.563,0,0,0,26.121-.871Z" transform="translate(1091.995 3731.096)" stroke="rgba(0,0,0,0)" stroke-width="1"/><rect width="74.424" height="8.354" rx="4.177" transform="translate(1113.259 3749.157)" fill="#edeff2"/><rect width="61.513" height="8.354" rx="4.177" transform="translate(1113.259 3768.902)" fill="#edeff2"/><path d="M8.3,5.4l2.885,3.186,5.457-5L16.793,0l-3.51.157ZM5.574,8.724l-2.35,2.539L1.788,9.795.9,10.7l2,2.044L0,15.71l1.433,1.467,2.9-2.962,2,2.042.888-.911L5.781,13.88l2.6-2.489ZM15.9,10.706,15,9.8l-1.434,1.47L3.509.156,0,0,.155,3.59,11.012,13.881,9.577,15.349l.888.909,2-2.043,2.895,2.963,1.435-1.47L13.9,12.749Z" transform="matrix(0.996, 0, -0.003, 0.999, 1219.393, 3754.956)" fill="#928d9e" stroke="#928d9e" stroke-linejoin="round" stroke-width="1"/><g transform="translate(1092.723 3765.936)" opacity="0.5"><g transform="translate(0 0)"><g transform="translate(5.686 0)"><g transform="translate(0)" clip-path="url(#i)"><path d="M-140.444-893.248a12.167,12.167,0,0,1-3.067,2.621,12.182,12.182,0,0,1-3.067-2.621,12.262,12.262,0,0,1-2.794-9.844,10.569,10.569,0,0,0,3.431-.756,10.582,10.582,0,0,0,2.43-1.38,10.574,10.574,0,0,0,2.431,1.38,10.554,10.554,0,0,0,3.431.756,12.263,12.263,0,0,1-2.8,9.844Z" transform="translate(143.511 905.227)" fill="#281d40" fill-rule="evenodd"/></g></g><g transform="translate(149.498 905.594)" fill="none" stroke-linejoin="round" fill-rule="evenodd"><path d="M-140.9-893.85a11.558,11.558,0,0,1-2.913,2.489,11.57,11.57,0,0,1-2.913-2.489,11.646,11.646,0,0,1-2.654-9.349,10.036,10.036,0,0,0,3.259-.718,10.045,10.045,0,0,0,2.308-1.311,10.038,10.038,0,0,0,2.308,1.311,10.025,10.025,0,0,0,3.259.718,11.647,11.647,0,0,1-2.655,9.349Z" stroke="none"/><path d="M -143.8118591308594 -891.361083984375 C -142.6901702880859 -892.0392456054688 -141.7105102539063 -892.8764038085938 -140.8991851806641 -893.8500366210938 C -137.8806762695313 -897.4710083007813 -137.9850158691406 -901.076171875 -138.2445373535156 -903.19873046875 C -139.3680725097656 -903.2554931640625 -140.4624481201172 -903.4962158203125 -141.5033416748047 -903.9165649414063 C -142.3270721435547 -904.2490234375 -143.1020660400391 -904.689208984375 -143.8116607666016 -905.2271118164063 C -144.5212860107422 -904.689208984375 -145.2964477539063 -904.2490234375 -146.1198120117188 -903.9165649414063 C -147.1608734130859 -903.4965209960938 -148.2554321289063 -903.2554931640625 -149.3786315917969 -903.19873046875 C -149.6385192871094 -901.076171875 -149.7428588867188 -897.4710083007813 -146.7247314453125 -893.8500366210938 C -145.9135894775391 -892.8768920898438 -144.9339141845703 -892.039794921875 -143.8118591308594 -891.361083984375 M -143.8118591308594 -890.361083984375 C -143.9911041259766 -890.361083984375 -144.1703186035156 -890.4091796875 -144.3294219970703 -890.5054321289063 C -145.54638671875 -891.2415771484375 -146.6107330322266 -892.1514282226563 -147.4928741455078 -893.2097778320313 C -148.9267425537109 -894.9300537109375 -149.8584442138672 -896.8422241210938 -150.2621002197266 -898.8931884765625 C -150.6219329833984 -900.7213745117188 -150.4967041015625 -902.2953491210938 -150.3712158203125 -903.3202514648438 C -150.3121337890625 -903.8027954101563 -149.9146118164063 -904.1729125976563 -149.4291076660156 -904.1974487304688 C -148.4180145263672 -904.24853515625 -147.4304962158203 -904.466064453125 -146.4939727783203 -904.8439331054688 C -145.7537231445313 -905.142822265625 -145.0544128417969 -905.5399169921875 -144.4157257080078 -906.0240478515625 C -144.2371368408203 -906.159423828125 -144.0243682861328 -906.2271118164063 -143.8116607666016 -906.2271118164063 C -143.5988922119141 -906.2271118164063 -143.3861846923828 -906.159423828125 -143.2075653076172 -906.0240478515625 C -142.5687103271484 -905.5397338867188 -141.8694000244141 -905.1427001953125 -141.1290740966797 -904.8438720703125 C -140.1934509277344 -904.466064453125 -139.2060546875 -904.2485961914063 -138.1940765380859 -904.1974487304688 C -137.70849609375 -904.1729125976563 -137.3109436035156 -903.8026733398438 -137.2519226074219 -903.320068359375 C -137.1266021728516 -902.2950439453125 -137.0015869140625 -900.7208862304688 -137.3614349365234 -898.8931274414063 C -137.7652282714844 -896.8421020507813 -138.6970825195313 -894.929931640625 -140.1310729980469 -893.209716796875 C -141.0134124755859 -892.15087890625 -142.0777740478516 -891.240966796875 -143.2944793701172 -890.5053100585938 C -143.4535217285156 -890.4091796875 -143.6327056884766 -890.361083984375 -143.8118591308594 -890.361083984375 Z" stroke="none" fill="#281d40"/></g></g><path d="M-6105.329,419.046v13.968" transform="translate(6111.015 -418.679)" fill="none" stroke="#281d40" stroke-width="1"/></g><g transform="translate(1092.723 3746.487)" opacity="0.5"><g transform="translate(0 0)"><g transform="translate(0 6.646)"><g transform="translate(0 0)" clip-path="url(#j)"><path d="M-140.866-895.312a11.327,11.327,0,0,1-2.924,2.169,11.341,11.341,0,0,1-2.924-2.169,9.2,9.2,0,0,1-2.664-8.147,11.38,11.38,0,0,0,3.271-.625,10.581,10.581,0,0,0,2.317-1.142,10.574,10.574,0,0,0,2.317,1.142,11.366,11.366,0,0,0,3.271.625,9.2,9.2,0,0,1-2.665,8.147Z" transform="translate(149.498 900.103)" fill="#281d40" fill-rule="evenodd"/></g></g><g transform="translate(149.755 905.227)" fill="none" stroke-linejoin="round" fill-rule="evenodd"><path d="M-141.255-894.321a11.081,11.081,0,0,1-2.792,2.386,11.092,11.092,0,0,1-2.792-2.386,11.164,11.164,0,0,1-2.544-8.962,9.62,9.62,0,0,0,3.124-.688,9.635,9.635,0,0,0,2.213-1.256,9.629,9.629,0,0,0,2.213,1.256,9.6,9.6,0,0,0,3.124.688,11.165,11.165,0,0,1-2.545,8.962Z" stroke="none"/><path d="M -144.0471496582031 -891.93505859375 C -142.9718933105469 -892.585205078125 -142.0327911376953 -893.3876953125 -141.2550354003906 -894.321044921875 C -138.3614349365234 -897.7921142578125 -138.4614410400391 -901.248046875 -138.7102203369141 -903.2828369140625 C -139.7872924804688 -903.337158203125 -140.8363647460938 -903.56787109375 -141.8341827392578 -903.970947265625 C -142.6238403320313 -904.2896728515625 -143.3667144775391 -904.711669921875 -144.0469818115234 -905.2271728515625 C -144.7272338867188 -904.711669921875 -145.4703063964844 -904.2896728515625 -146.2595977783203 -903.970947265625 C -147.2575988769531 -903.568359375 -148.3068542480469 -903.337158203125 -149.3835601806641 -903.2828369140625 C -149.6327056884766 -901.248046875 -149.7327270507813 -897.7921142578125 -146.8394927978516 -894.321044921875 C -146.0619201660156 -893.38818359375 -145.1227874755859 -892.585693359375 -144.0471496582031 -891.93505859375 M -144.0471496582031 -890.93505859375 C -144.2264099121094 -890.93505859375 -144.4056091308594 -890.983154296875 -144.5647125244141 -891.0794067382813 C -145.7352142333984 -891.7874145507813 -146.7590026855469 -892.6626586914063 -147.6076354980469 -893.6807861328125 C -148.9866638183594 -895.335205078125 -149.8827819824219 -897.1744384765625 -150.2711029052734 -899.1474609375 C -150.6171722412109 -900.90576171875 -150.4967956542969 -902.4190673828125 -150.3761444091797 -903.4043579101563 C -150.3170623779297 -903.8869018554688 -149.9194946289063 -904.257080078125 -149.4339447021484 -904.2815551757813 C -148.4697875976563 -904.3302001953125 -147.5276489257813 -904.5377197265625 -146.6336975097656 -904.8983154296875 C -145.9276885986328 -905.1834106445313 -145.2604827880859 -905.562255859375 -144.6509552001953 -906.024169921875 C -144.4723663330078 -906.1594848632813 -144.2596740722656 -906.2271728515625 -144.0469818115234 -906.2271728515625 C -143.8342742919922 -906.2271728515625 -143.62158203125 -906.1594848632813 -143.4429931640625 -906.024169921875 C -142.8332214355469 -905.5620727539063 -142.166015625 -905.1832885742188 -141.4598846435547 -904.8982543945313 C -140.5673522949219 -904.5377197265625 -139.6253662109375 -904.3302612304688 -138.6598510742188 -904.2815551757813 C -138.1742401123047 -904.257080078125 -137.776611328125 -903.8868408203125 -137.7176055908203 -903.4041748046875 C -137.5971221923828 -902.418701171875 -137.4769744873047 -900.9052734375 -137.8230743408203 -899.1473999023438 C -138.2115173339844 -897.1743774414063 -139.1077728271484 -895.3351440429688 -140.4869232177734 -893.6807250976563 C -141.3356170654297 -892.6622314453125 -142.3594055175781 -891.7869262695313 -143.5297241210938 -891.079345703125 C -143.6887817382813 -890.983154296875 -143.8679962158203 -890.93505859375 -144.0471496582031 -890.93505859375 Z" stroke="none" fill="#281d40"/></g></g><path d="M-6104.175,419.046h-10.616" transform="translate(6115.167 -412.622)" fill="none" stroke="#281d40" stroke-linejoin="round" stroke-width="1"/></g></g><g transform="translate(-101.551 -1341.844)"><g transform="matrix(1, 0, 0, 1, 1119.33, 4772.06)" filter="url(#k)"><rect width="184.616" height="186.721" rx="2" transform="translate(295.67 104.2)" fill="#fff"/></g><path d="M-2.032,0-3.454-3.753h.66L-2-1.542a7.969,7.969,0,0,1,.3.995h.027q.01-.044.026-.1t.036-.123q.021-.067.253-.771l.8-2.211H.1L-1.324,0ZM3.139-1.036a.952.952,0,0,1-.393.815,1.836,1.836,0,0,1-1.1.289A2.5,2.5,0,0,1,.463-.167V-.728a2.724,2.724,0,0,0,1.193.3,1.19,1.19,0,0,0,.677-.15.47.47,0,0,0,.212-.4.458.458,0,0,0-.2-.376,3.179,3.179,0,0,0-.723-.352,4.115,4.115,0,0,1-.745-.35.973.973,0,0,1-.316-.326.9.9,0,0,1-.1-.441.846.846,0,0,1,.376-.728,1.757,1.757,0,0,1,1.032-.267,2.86,2.86,0,0,1,1.2.253l-.208.489a2.7,2.7,0,0,0-1.029-.239,1.127,1.127,0,0,0-.581.121.374.374,0,0,0-.2.333.416.416,0,0,0,.171.34,3.662,3.662,0,0,0,.8.374,3.487,3.487,0,0,1,.692.325,1.019,1.019,0,0,1,.33.338A.905.905,0,0,1,3.139-1.036Z" transform="translate(1506.565 4908.221)" stroke="rgba(0,0,0,0)" stroke-width="1"/><path d="M.719,0V-5.711H1.93V-1H4.246V0ZM6.094-2.191a1.833,1.833,0,0,0,.213.98A.761.761,0,0,0,7-.879a.749.749,0,0,0,.686-.33,1.859,1.859,0,0,0,.209-.982,1.8,1.8,0,0,0-.211-.973.763.763,0,0,0-.691-.324.76.76,0,0,0-.687.322A1.8,1.8,0,0,0,6.094-2.191Zm3.02,0A2.347,2.347,0,0,1,8.551-.523a2.04,2.04,0,0,1-1.566.6A2.191,2.191,0,0,1,5.875-.2a1.832,1.832,0,0,1-.738-.791,2.658,2.658,0,0,1-.258-1.2,2.334,2.334,0,0,1,.559-1.664,2.051,2.051,0,0,1,1.57-.594,2.2,2.2,0,0,1,1.109.273,1.825,1.825,0,0,1,.738.785A2.633,2.633,0,0,1,9.113-2.191Zm3.414-2.258a1.413,1.413,0,0,1,1.211.6,2.769,2.769,0,0,1,.438,1.654,2.721,2.721,0,0,1-.451,1.676A1.46,1.46,0,0,1,12.5.078,1.448,1.448,0,0,1,11.289-.48h-.082l-.2.48H10.1V-6.078h1.191v1.414q0,.27-.047.863h.047A1.378,1.378,0,0,1,12.527-4.449Zm-.383.953a.752.752,0,0,0-.645.271,1.559,1.559,0,0,0-.211.9V-2.2A1.84,1.84,0,0,0,11.5-1.191a.746.746,0,0,0,.662.3.664.664,0,0,0,.584-.338,1.829,1.829,0,0,0,.217-.982,1.733,1.733,0,0,0-.219-.967A.686.686,0,0,0,12.145-3.5Zm5.445-.953a1.413,1.413,0,0,1,1.211.6,2.769,2.769,0,0,1,.438,1.654,2.721,2.721,0,0,1-.451,1.676,1.46,1.46,0,0,1-1.229.594A1.448,1.448,0,0,1,16.352-.48H16.27l-.2.48h-.91V-6.078h1.191v1.414q0,.27-.047.863h.047A1.378,1.378,0,0,1,17.59-4.449Zm-.383.953a.752.752,0,0,0-.645.271,1.559,1.559,0,0,0-.211.9V-2.2a1.84,1.84,0,0,0,.209,1.008.746.746,0,0,0,.662.3.664.664,0,0,0,.584-.338,1.829,1.829,0,0,0,.217-.982,1.733,1.733,0,0,0-.219-.967A.686.686,0,0,0,17.207-3.5Zm2.313-.871h1.3l.824,2.457a3.409,3.409,0,0,1,.145.758h.023a3.349,3.349,0,0,1,.168-.758l.809-2.457H24.07L22.223.559A2.133,2.133,0,0,1,21.5,1.582a1.829,1.829,0,0,1-1.1.34,2.765,2.765,0,0,1-.605-.066V.91a2.037,2.037,0,0,0,.469.051.847.847,0,0,0,.553-.193,1.254,1.254,0,0,0,.369-.584l.07-.215Z" transform="translate(1494.565 4891.585)" stroke="rgba(0,0,0,0)" stroke-width="1"/><path d="M1.939,0H1.4V-3.809H.059v-.475H3.27v.475H1.939ZM3.284-3.217H3.85l.694,1.831a5.911,5.911,0,0,1,.27.876h.023q.026-.108.12-.406t.158-.476l.653-1.825h.568L4.951.445a1.815,1.815,0,0,1-.48.765,1.041,1.041,0,0,1-.688.231,1.944,1.944,0,0,1-.437-.05V.973a1.525,1.525,0,0,0,.352.035A.668.668,0,0,0,4.125.869.98.98,0,0,0,4.412.439L4.579.012ZM8.37.059a1.17,1.17,0,0,1-1-.466H7.339l.012.12A4.038,4.038,0,0,1,7.374.12V1.441H6.847V-3.217H7.28l.07.439h.023a1.136,1.136,0,0,1,.434-.381,1.308,1.308,0,0,1,.568-.117,1.176,1.176,0,0,1,.974.435A1.921,1.921,0,0,1,9.7-1.614a1.942,1.942,0,0,1-.349,1.23A1.175,1.175,0,0,1,8.37.059ZM8.282-2.833a.826.826,0,0,0-.69.27,1.39,1.39,0,0,0-.218.847v.1a1.607,1.607,0,0,0,.217.945.819.819,0,0,0,.7.292.725.725,0,0,0,.631-.328,1.589,1.589,0,0,0,.227-.914,1.517,1.517,0,0,0-.227-.9A.748.748,0,0,0,8.282-2.833ZM11.906.059a1.482,1.482,0,0,1-1.135-.438,1.69,1.69,0,0,1-.412-1.206,1.858,1.858,0,0,1,.384-1.232,1.282,1.282,0,0,1,1.037-.458,1.251,1.251,0,0,1,.967.391,1.5,1.5,0,0,1,.36,1.059v.319H10.9a1.233,1.233,0,0,0,.278.832.969.969,0,0,0,.747.284,2.538,2.538,0,0,0,.489-.045,2.809,2.809,0,0,0,.542-.177v.463a2.552,2.552,0,0,1-.5.161A2.858,2.858,0,0,1,11.906.059Zm-.132-2.9a.765.765,0,0,0-.6.243,1.141,1.141,0,0,0-.261.677h1.638a1.044,1.044,0,0,0-.208-.686A.714.714,0,0,0,11.774-2.845Zm3.2-.372h.565l.694,1.831a5.911,5.911,0,0,1,.27.876h.023q.026-.108.12-.406t.158-.476l.653-1.825h.568L16.644.445a1.815,1.815,0,0,1-.48.765,1.041,1.041,0,0,1-.688.231,1.944,1.944,0,0,1-.437-.05V.973a1.525,1.525,0,0,0,.352.035.668.668,0,0,0,.428-.139A.98.98,0,0,0,16.1.439l.167-.428Zm6.357,1.6a1.773,1.773,0,0,1-.4,1.23,1.407,1.407,0,0,1-1.1.442,1.466,1.466,0,0,1-.773-.2,1.334,1.334,0,0,1-.519-.584,2.034,2.034,0,0,1-.182-.885,1.769,1.769,0,0,1,.393-1.223,1.4,1.4,0,0,1,1.1-.438,1.376,1.376,0,0,1,1.08.447A1.754,1.754,0,0,1,21.334-1.614Zm-2.429,0a1.508,1.508,0,0,0,.239.921.829.829,0,0,0,.7.315.827.827,0,0,0,.7-.315,1.5,1.5,0,0,0,.24-.921,1.454,1.454,0,0,0-.242-.913.847.847,0,0,0-.708-.306Q18.905-2.833,18.905-1.614Zm3.762-1.6v2.071a.83.83,0,0,0,.174.579.7.7,0,0,0,.541.189A.879.879,0,0,0,24.1-.653a1.4,1.4,0,0,0,.226-.888V-3.217h.53V0h-.434l-.076-.425h-.026a.946.946,0,0,1-.407.357A1.405,1.405,0,0,1,23.3.059a1.229,1.229,0,0,1-.875-.278,1.178,1.178,0,0,1-.294-.891V-3.217Zm4.711-.059a1.816,1.816,0,0,1,.378.035l-.064.486a1.556,1.556,0,0,0-.349-.041.857.857,0,0,0-.473.141.958.958,0,0,0-.341.388,1.217,1.217,0,0,0-.123.549V0h-.527V-3.217h.434l.059.589h.023a1.392,1.392,0,0,1,.437-.483A.984.984,0,0,1,27.378-3.275ZM34.008,0V-2.071q0-.762-.653-.762a.8.8,0,0,0-.659.261,1.253,1.253,0,0,0-.211.8V0H31.96V-2.071a.872.872,0,0,0-.16-.571.616.616,0,0,0-.5-.19.765.765,0,0,0-.652.272,1.5,1.5,0,0,0-.207.894V0h-.527V-3.217h.425l.079.439h.029a.956.956,0,0,1,.388-.366,1.186,1.186,0,0,1,.561-.132.952.952,0,0,1,.984.539h.029a1.059,1.059,0,0,1,.423-.4,1.289,1.289,0,0,1,.608-.141,1.084,1.084,0,0,1,.816.281,1.262,1.262,0,0,1,.271.9V0Zm2.886.059a1.482,1.482,0,0,1-1.135-.438,1.69,1.69,0,0,1-.412-1.206,1.858,1.858,0,0,1,.384-1.232,1.282,1.282,0,0,1,1.037-.458,1.251,1.251,0,0,1,.967.391,1.5,1.5,0,0,1,.36,1.059v.319h-2.2a1.233,1.233,0,0,0,.278.832.969.969,0,0,0,.747.284,2.538,2.538,0,0,0,.489-.045,2.809,2.809,0,0,0,.542-.177v.463a2.552,2.552,0,0,1-.5.161A2.858,2.858,0,0,1,36.894.059Zm-.132-2.9a.765.765,0,0,0-.6.243,1.141,1.141,0,0,0-.261.677h1.638a1.044,1.044,0,0,0-.208-.686A.714.714,0,0,0,36.762-2.845ZM41-.888a.816.816,0,0,1-.337.7,1.574,1.574,0,0,1-.946.248,2.139,2.139,0,0,1-1.011-.2v-.48a2.335,2.335,0,0,0,1.022.258,1.02,1.02,0,0,0,.58-.129.4.4,0,0,0,.182-.346.392.392,0,0,0-.174-.322,2.725,2.725,0,0,0-.62-.3,3.527,3.527,0,0,1-.639-.3.834.834,0,0,1-.271-.28.767.767,0,0,1-.086-.378.725.725,0,0,1,.322-.624,1.506,1.506,0,0,1,.885-.229,2.451,2.451,0,0,1,1.025.217l-.179.419a2.313,2.313,0,0,0-.882-.205.966.966,0,0,0-.5.1.32.32,0,0,0-.17.286.357.357,0,0,0,.146.292,3.139,3.139,0,0,0,.683.321,2.989,2.989,0,0,1,.593.278.874.874,0,0,1,.283.29A.776.776,0,0,1,41-.888Zm2.874,0a.816.816,0,0,1-.337.7,1.574,1.574,0,0,1-.946.248,2.139,2.139,0,0,1-1.011-.2v-.48a2.335,2.335,0,0,0,1.022.258,1.02,1.02,0,0,0,.58-.129.4.4,0,0,0,.182-.346.392.392,0,0,0-.174-.322,2.725,2.725,0,0,0-.62-.3,3.527,3.527,0,0,1-.639-.3.834.834,0,0,1-.271-.28.767.767,0,0,1-.086-.378.725.725,0,0,1,.322-.624,1.506,1.506,0,0,1,.885-.229,2.451,2.451,0,0,1,1.025.217l-.179.419a2.313,2.313,0,0,0-.882-.205.966.966,0,0,0-.5.1.32.32,0,0,0-.17.286.357.357,0,0,0,.146.292,3.139,3.139,0,0,0,.683.321,2.989,2.989,0,0,1,.593.278.874.874,0,0,1,.283.29A.776.776,0,0,1,43.878-.888ZM46.644,0l-.1-.457h-.023a1.351,1.351,0,0,1-.479.409,1.477,1.477,0,0,1-.6.107,1.055,1.055,0,0,1-.744-.249.91.91,0,0,1-.27-.7q0-.979,1.544-1.025l.545-.021v-.19a.786.786,0,0,0-.158-.541.654.654,0,0,0-.507-.174,1.505,1.505,0,0,0-.482.076,3.955,3.955,0,0,0-.426.17l-.161-.4a2.387,2.387,0,0,1,.53-.2,2.293,2.293,0,0,1,.568-.073,1.257,1.257,0,0,1,.867.258,1.058,1.058,0,0,1,.284.82V0ZM45.557-.366a.974.974,0,0,0,.7-.239.887.887,0,0,0,.253-.678v-.29l-.475.021a1.725,1.725,0,0,0-.807.176.532.532,0,0,0-.253.489.487.487,0,0,0,.154.387A.635.635,0,0,0,45.557-.366Zm3.691-.006a.876.876,0,0,0,.708-.262,1.3,1.3,0,0,0,.221-.842V-1.6a1.562,1.562,0,0,0-.223-.937.844.844,0,0,0-.718-.293.716.716,0,0,0-.625.321,1.6,1.6,0,0,0-.221.916,1.606,1.606,0,0,0,.215.911A.729.729,0,0,0,49.248-.372Zm.923.343.018-.4h-.023a1.118,1.118,0,0,1-1,.483,1.181,1.181,0,0,1-.974-.435,1.909,1.909,0,0,1-.35-1.226A1.929,1.929,0,0,1,48.2-2.827a1.162,1.162,0,0,1,.965-.448,1.173,1.173,0,0,1,1.008.486H50.2l.07-.428h.419V.053a1.408,1.408,0,0,1-.35,1.04,1.488,1.488,0,0,1-1.088.349A2.823,2.823,0,0,1,48.1,1.236V.75A2.49,2.49,0,0,0,49.283,1a.874.874,0,0,0,.649-.24A.9.9,0,0,0,50.171.1Zm2.912.088a1.482,1.482,0,0,1-1.135-.438,1.69,1.69,0,0,1-.412-1.206,1.858,1.858,0,0,1,.384-1.232,1.282,1.282,0,0,1,1.037-.458,1.251,1.251,0,0,1,.967.391,1.5,1.5,0,0,1,.36,1.059v.319h-2.2a1.233,1.233,0,0,0,.278.832.969.969,0,0,0,.747.284A2.538,2.538,0,0,0,53.6-.435a2.809,2.809,0,0,0,.542-.177v.463a2.552,2.552,0,0,1-.5.161A2.858,2.858,0,0,1,53.083.059Zm-.132-2.9a.765.765,0,0,0-.6.243,1.141,1.141,0,0,0-.261.677H53.73a1.044,1.044,0,0,0-.208-.686A.714.714,0,0,0,52.951-2.845Z" transform="translate(1423.318 5050.148)" fill="#989898" stroke="rgba(0,0,0,0)" stroke-width="1"/><rect width="184.616" height="0.42" transform="translate(1415 4923.248)" fill="#f8f9fb"/><rect width="184.616" height="0.42" transform="translate(1415 5035.923)" fill="#f8f9fb"/><rect width="59.889" height="9.15" rx="4.575" transform="translate(1523.944 4902.053)" fill="#e1e3e6"/><rect width="59.889" height="9.15" rx="4.575" transform="translate(1430.783 4902.053)" fill="#e1e3e6"/><rect width="88.149" height="31.608" rx="3" transform="translate(1423.318 4932.756)" fill="#edeff2"/><rect width="67.375" height="19.131" rx="3" transform="translate(1423.318 4968.523)" fill="#edeff2"/><rect width="78.164" height="31.608" rx="3" transform="translate(1513.135 4995.972)" fill="#d3d6db"/><rect width="21.627" height="18.299" rx="2" transform="translate(1573.831 5040.527)" fill="#009aff"/><path d="M8.289.025.227,4.676a.418.418,0,0,0,.038.751L2.114,6.2l5-4.4a.1.1,0,0,1,.15.144l-4.19,5.1v1.4a.417.417,0,0,0,.739.275l1.1-1.344,2.167.908a.419.419,0,0,0,.574-.317L8.908.457A.417.417,0,0,0,8.289.025Z" transform="translate(1579.35 5045.254)" fill="#fff"/><rect width="71.509" height="5.823" rx="2.911" transform="translate(1431.636 4940.242)" fill="#fff"/><rect width="61.528" height="5.823" rx="2.911" transform="translate(1521.453 5003.458)" fill="#fff"/><rect width="44.06" height="5.823" rx="2.911" transform="translate(1431.636 4951.055)" fill="#fff"/><rect width="24.929" height="5.823" rx="2.911" transform="translate(1558.052 5014.271)" fill="#fff"/><rect width="50.715" height="5.823" rx="2.911" transform="translate(1431.636 4975.177)" fill="#fff"/></g></g></svg>