<svg xmlns="http://www.w3.org/2000/svg" xmlns:xlink="http://www.w3.org/1999/xlink" width="585.965" height="310" viewBox="0 0 585.965 310"><defs><linearGradient id="a" x1="0.157" y1="0.034" x2="0.802" y2="1" gradientUnits="objectBoundingBox"><stop offset="0" stop-color="#14ff6c"/><stop offset="1" stop-color="#00ffcd"/></linearGradient><filter id="b" x="0" y="75.497" width="158.49" height="158.49" filterUnits="userSpaceOnUse"><feOffset dy="1" input="SourceAlpha"/><feGaussianBlur stdDeviation="10" result="c"/><feFlood flood-color="#ced6e6" flood-opacity="0.4"/><feComposite operator="in" in2="c"/><feComposite in="SourceGraphic"/></filter><linearGradient id="d" x1="0.146" y1="0.148" x2="0.853" y2="0.854" gradientUnits="objectBoundingBox"><stop offset="0" stop-color="#fff" stop-opacity="0"/><stop offset="0.02" stop-color="#f4f4f4" stop-opacity="0.008"/><stop offset="0.135" stop-color="#bcbcbc" stop-opacity="0.039"/><stop offset="0.254" stop-color="#8a8a8a" stop-opacity="0.075"/><stop offset="0.373" stop-color="#5f5f5f" stop-opacity="0.114"/><stop offset="0.493" stop-color="#3d3d3d" stop-opacity="0.149"/><stop offset="0.615" stop-color="#222" stop-opacity="0.184"/><stop offset="0.738" stop-color="#0f0f0f" stop-opacity="0.22"/><stop offset="0.865" stop-color="#040404" stop-opacity="0.259"/><stop offset="1" stop-color="#1a1a39" stop-opacity="0.302"/></linearGradient><linearGradient id="e" x1="0.147" y1="0.15" x2="0.853" y2="0.863" xlink:href="#d"/><linearGradient id="f" x1="0.36" y1="0.279" x2="0.595" y2="0.658" gradientUnits="objectBoundingBox"><stop offset="0" stop-color="#1a1a39" stop-opacity="0.302"/><stop offset="0.141" stop-color="#1a1a39" stop-opacity="0.302"/><stop offset="1" stop-color="#1a1a39" stop-opacity="0.302"/></linearGradient><filter id="g" x="244.964" y="0" width="341.001" height="310" filterUnits="userSpaceOnUse"><feOffset dy="1" input="SourceAlpha"/><feGaussianBlur stdDeviation="10" result="h"/><feFlood flood-color="#0a1834" flood-opacity="0.102"/><feComposite operator="in" in2="h"/><feComposite in="SourceGraphic"/></filter><linearGradient id="i" x1="0.321" y1="0.263" x2="0.986" y2="1.019" gradientUnits="objectBoundingBox"><stop offset="0" stop-color="#ffb300"/><stop offset="1" stop-color="#ffdd01"/></linearGradient><clipPath id="l"><path d="M2,0H278.088a2,2,0,0,1,2,2V32.073a0,0,0,0,1,0,0H0a0,0,0,0,1,0,0V2A2,2,0,0,1,2,0Z" transform="translate(0)" fill="#dfe3eb"/></clipPath><clipPath id="n"><path d="M0,0H281a0,0,0,0,1,0,0V89.112a2,2,0,0,1-2,2H2a2,2,0,0,1-2-2V0A0,0,0,0,1,0,0Z" transform="translate(0 0)" fill="#ffcbd8"/></clipPath><clipPath id="p"><rect width="434.64" height="174.919" fill="url(#a)"/></clipPath></defs><g transform="translate(-956.768 -4057)"><rect width="173.501" height="189.28" rx="2" transform="translate(1181.481 4121.36)" fill="#30284e"/><g transform="translate(1198.808 4144.714)"><path d="M2.583,3.947,47.442,4a1.951,1.951,0,0,0,1.95-1.95h0A1.951,1.951,0,0,0,47.442.1L2.59.04A1.951,1.951,0,0,0,.64,1.99h0A1.951,1.951,0,0,0,2.583,3.947Z" transform="translate(26.791 -0.011)" fill="#f40662"/><path d="M80.36,3.9l15.6.022a1.951,1.951,0,0,0,1.95-1.95h0a1.951,1.951,0,0,0-1.95-1.95L80.36,0a1.951,1.951,0,0,0-1.95,1.95h0A1.951,1.951,0,0,0,80.36,3.9Z" transform="translate(-77.897)" fill="#eae6ff"/><path d="M15.19,20.12l15.991.022a1.951,1.951,0,0,0,1.95-1.95h0a1.951,1.951,0,0,0-1.95-1.95L15.19,16.22a1.951,1.951,0,0,0-1.95,1.95h0A1.96,1.96,0,0,0,15.19,20.12Z" transform="translate(33.952 -4.505)" fill="#6f00ff"/><path d="M48.67,20.07l15.991.022a1.951,1.951,0,0,0,1.95-1.95h0a1.951,1.951,0,0,0-1.95-1.95L48.67,16.17a1.951,1.951,0,0,0-1.95,1.95h0A1.951,1.951,0,0,0,48.67,20.07Z" transform="translate(-23.709 -4.491)" fill="#eae6ff"/><path d="M41.09,36.26l29.641.036a1.951,1.951,0,0,0,1.95-1.95h0a1.951,1.951,0,0,0-1.95-1.95L41.09,32.36a1.951,1.951,0,0,0-1.95,1.95h0A1.951,1.951,0,0,0,41.09,36.26Z" transform="translate(-24.305 -8.988)" fill="#6f00ff"/><path d="M14.63,36.33l10.14.014a1.951,1.951,0,0,0,1.95-1.95h0a1.951,1.951,0,0,0-1.95-1.95L14.63,32.43a1.951,1.951,0,0,0-1.95,1.95h0A1.951,1.951,0,0,0,14.63,36.33Z" transform="translate(40.766 -9.007)" fill="#eae6ff"/><path d="M82.69,20.03l14.431.022a1.951,1.951,0,0,0,1.95-1.95h0a1.951,1.951,0,0,0-1.95-1.95L82.69,16.13a1.951,1.951,0,0,0-1.95,1.95h0A1.951,1.951,0,0,0,82.69,20.03Z" transform="translate(-80.74 -4.48)" fill="#f40662"/><path d="M2.53,58.01l10.92.014a1.951,1.951,0,0,0,1.95-1.95h0a1.951,1.951,0,0,0-1.95-1.95L2.53,54.11A1.951,1.951,0,0,0,.58,56.06h0A1.951,1.951,0,0,0,2.53,58.01Z" transform="translate(60.826 -15.029)" fill="#6f00ff"/><path d="M28.45,57.917l43.292.051a1.951,1.951,0,0,0,1.95-1.95h0a1.951,1.951,0,0,0-1.95-1.95L28.45,54.01a1.951,1.951,0,0,0-1.95,1.95h0A1.953,1.953,0,0,0,28.45,57.917Z" transform="translate(-16.186 -15.001)" fill="#85d61d"/><path d="M2.51,74.193l19.111.029a1.951,1.951,0,0,0,1.95-1.95h0a1.951,1.951,0,0,0-1.95-1.95L2.51,70.3A1.951,1.951,0,0,0,.56,72.25h0A1.95,1.95,0,0,0,2.51,74.193Z" transform="translate(52.67 -19.526)" fill="#f40662"/><path d="M55.95,90.34l9.75.014a1.951,1.951,0,0,0,1.95-1.95h0a1.951,1.951,0,0,0-1.95-1.95l-9.75-.014A1.951,1.951,0,0,0,54,88.39h0A1.951,1.951,0,0,0,55.95,90.34Z" transform="translate(-30.007 -24.009)" fill="#85d61d"/><path d="M1.95,90.38l29.251.036a1.951,1.951,0,0,0,1.95-1.95h0a1.951,1.951,0,0,0-1.95-1.95L1.95,86.48A1.951,1.951,0,0,0,0,88.43H0A1.956,1.956,0,0,0,1.95,90.38Z" transform="translate(43.494 -24.02)" fill="#6f00ff"/><path d="M41.93,74.1l42.122.051A1.951,1.951,0,0,0,86,72.2h0a1.951,1.951,0,0,0-1.95-1.95L41.93,70.2a1.951,1.951,0,0,0-1.95,1.95h0A1.951,1.951,0,0,0,41.93,74.1Z" transform="translate(-38.232 -19.498)" fill="#6f00ff"/></g><g transform="translate(1198.808 4220.257)"><path d="M47.449,3.947,2.59,4A1.951,1.951,0,0,1,.64,2.048h0A1.951,1.951,0,0,1,2.59.1L47.442.04a1.951,1.951,0,0,1,1.95,1.95h0A1.951,1.951,0,0,1,47.449,3.947Z" transform="translate(-0.178 -0.011)" fill="#f40662"/><path d="M95.961,3.9l-15.6.022a1.951,1.951,0,0,1-1.95-1.95h0A1.951,1.951,0,0,1,80.36.022L95.961,0a1.951,1.951,0,0,1,1.95,1.95h0A1.951,1.951,0,0,1,95.961,3.9Z" transform="translate(-21.778)" fill="#eae6ff"/><path d="M31.181,20.12l-15.991.022a1.951,1.951,0,0,1-1.95-1.95h0a1.951,1.951,0,0,1,1.95-1.95l15.991-.022a1.951,1.951,0,0,1,1.95,1.95h0A1.96,1.96,0,0,1,31.181,20.12Z" transform="translate(-3.677 -4.505)" fill="#6f00ff"/><path d="M64.661,20.07l-15.991.022a1.951,1.951,0,0,1-1.95-1.95h0a1.951,1.951,0,0,1,1.95-1.95l15.991-.022a1.951,1.951,0,0,1,1.95,1.95h0A1.951,1.951,0,0,1,64.661,20.07Z" transform="translate(-12.977 -4.491)" fill="#eae6ff"/><path d="M70.731,36.26,41.09,36.3a1.951,1.951,0,0,1-1.95-1.95h0a1.951,1.951,0,0,1,1.95-1.95l29.641-.036a1.951,1.951,0,0,1,1.95,1.95h0A1.951,1.951,0,0,1,70.731,36.26Z" transform="translate(-10.871 -8.988)" fill="#6f00ff"/><path d="M24.77,36.33l-10.14.014a1.951,1.951,0,0,1-1.95-1.95h0a1.951,1.951,0,0,1,1.95-1.95l10.14-.014a1.951,1.951,0,0,1,1.95,1.95h0A1.951,1.951,0,0,1,24.77,36.33Z" transform="translate(-3.522 -9.007)" fill="#eae6ff"/><path d="M97.121,20.03l-14.431.022a1.951,1.951,0,0,1-1.95-1.95h0a1.951,1.951,0,0,1,1.95-1.95l14.431-.022a1.951,1.951,0,0,1,1.95,1.95h0A1.951,1.951,0,0,1,97.121,20.03Z" transform="translate(-22.426 -4.48)" fill="#f40662"/><path d="M13.45,58.01l-10.92.014a1.951,1.951,0,0,1-1.95-1.95h0a1.951,1.951,0,0,1,1.95-1.95l10.92-.014a1.951,1.951,0,0,1,1.95,1.95h0A1.951,1.951,0,0,1,13.45,58.01Z" transform="translate(-0.161 -15.029)" fill="#6f00ff"/><path d="M71.742,57.917l-43.292.051a1.951,1.951,0,0,1-1.95-1.95h0a1.951,1.951,0,0,1,1.95-1.95l43.292-.058a1.951,1.951,0,0,1,1.95,1.95h0A1.953,1.953,0,0,1,71.742,57.917Z" transform="translate(-7.36 -15.001)" fill="#85d61d"/><path d="M21.621,74.193,2.51,74.222a1.951,1.951,0,0,1-1.95-1.95h0a1.951,1.951,0,0,1,1.95-1.95L21.621,70.3a1.951,1.951,0,0,1,1.95,1.95h0A1.95,1.95,0,0,1,21.621,74.193Z" transform="translate(-0.156 -19.526)" fill="#f40662"/><path d="M65.7,90.34l-9.75.014A1.951,1.951,0,0,1,54,88.4h0a1.951,1.951,0,0,1,1.95-1.95l9.75-.014a1.951,1.951,0,0,1,1.95,1.95h0A1.951,1.951,0,0,1,65.7,90.34Z" transform="translate(-14.999 -24.009)" fill="#85d61d"/><path d="M31.2,90.38,1.95,90.416A1.951,1.951,0,0,1,0,88.466H0a1.951,1.951,0,0,1,1.95-1.95L31.2,86.48a1.951,1.951,0,0,1,1.95,1.95h0A1.956,1.956,0,0,1,31.2,90.38Z" transform="translate(0 -24.02)" fill="#6f00ff"/><path d="M84.052,74.1l-42.122.051a1.951,1.951,0,0,1-1.95-1.95h0a1.951,1.951,0,0,1,1.95-1.95L84.052,70.2A1.951,1.951,0,0,1,86,72.15h0A1.951,1.951,0,0,1,84.052,74.1Z" transform="translate(-11.105 -19.498)" fill="#6f00ff"/></g><g transform="matrix(1, 0, 0, 1, 956.77, 4057)" filter="url(#b)"><rect width="97.49" height="97.49" rx="2" transform="translate(30.5 105)" fill="#fff" stroke="#f8f9fb" stroke-linecap="square" stroke-width="1"/></g><g transform="translate(1009.792 4184.948)"><path d="M19.38,38.123A19.43,19.43,0,0,1,5.671,32.546a18.864,18.864,0,0,1,0-26.966,19.63,19.63,0,0,1,27.417,0,18.8,18.8,0,0,1,0,26.966A19.429,19.429,0,0,1,19.38,38.123ZM19.344,7.838a11.426,11.426,0,0,0-8.069,3.285A11.053,11.053,0,0,0,9.244,24.279c.047.078.087.149.127.219.051.09.1.172.152.261A10.4,10.4,0,0,0,11.275,27c.073.073.158.147.238.216l.011.009c.07.062.142.125.206.186a6.772,6.772,0,0,0,.747.615l.056.042.043.034.018.014a4.605,4.605,0,0,0,.466.332,11.042,11.042,0,0,0,2,1.033c.343.135.7.239,1.038.339.392.107.746.176,1.088.243a11.99,11.99,0,0,0,2.2.209,11.482,11.482,0,0,0,8.034-3.236,11.181,11.181,0,0,0,3.118-10.091,10.074,10.074,0,0,0-.247-1.068,10.193,10.193,0,0,0-1.4-3c-.066-.082-.125-.164-.182-.245l-.008-.012c-.062-.088-.124-.174-.193-.26l-.024-.031a6.674,6.674,0,0,0-.643-.76c-.066-.065-.134-.14-.2-.214l-.009-.01-.015-.016c-.064-.071-.13-.145-.2-.208A11.79,11.79,0,0,0,25.14,9.4l-.121-.074L25,9.32a2.083,2.083,0,0,0-.355-.193A11.547,11.547,0,0,0,19.344,7.838Z" transform="translate(13.656 13.465)" fill="#e72635"/><path d="M10.154,25.9a11.025,11.025,0,0,1-3.326-7.852A8.841,8.841,0,0,1,9,8.885,9.132,9.132,0,0,1,18.312,6.75,11.489,11.489,0,0,1,26.3,10.021a11.09,11.09,0,0,1,.42,15.428A14.965,14.965,0,0,0,26.3,4.442a15.567,15.567,0,0,0-21.779,0,14.956,14.956,0,0,0,0,21.42,15.584,15.584,0,0,0,21.359.413A11.557,11.557,0,0,1,10.154,25.9Z" transform="translate(14.811 14.567)" fill="url(#d)"/><path d="M13.971,28.962a12.5,12.5,0,0,1-2.311-1.584l-.42-.413-.42-.413a11.066,11.066,0,0,1,.42-15.462,11.594,11.594,0,0,1,15.721-.413l.42.413.42.413a12.3,12.3,0,0,1,1.891,2.789,11.373,11.373,0,0,1,.6,1.515,9.564,9.564,0,0,1,.245,1.068,11.146,11.146,0,0,1-3.116,10.09,11.712,11.712,0,0,1-5.462,3,10.968,10.968,0,0,0,1.015,7.783.034.034,0,0,0,.035.034,19.662,19.662,0,0,0,10.084-5.234,18.859,18.859,0,0,0,0-26.965,19.631,19.631,0,0,0-27.416,0,18.859,18.859,0,0,0,0,26.965,19.27,19.27,0,0,0,8.684,4.925A18.41,18.41,0,0,1,13.971,28.962Z" transform="translate(0 0)" fill="#009aff"/><g transform="translate(1.085 1.068)"><path d="M12.885,27.894a11.525,11.525,0,0,1-2.731-2,11.025,11.025,0,0,1-3.326-7.852A8.841,8.841,0,0,1,9,8.885,9.205,9.205,0,0,1,18.312,6.75,11.489,11.489,0,0,1,26.3,10.021a11.09,11.09,0,0,1,.42,15.428A14.965,14.965,0,0,0,26.3,4.442a15.567,15.567,0,0,0-21.779,0,14.956,14.956,0,0,0,0,21.42,15.249,15.249,0,0,0,8.088,4.167C12.675,29.341,12.745,28.617,12.885,27.894Z" transform="translate(0 0)" fill="url(#e)"/><path d="M0,3.1A15.041,15.041,0,0,0,5.112,0,11.426,11.426,0,0,1,.105,2.583,1.362,1.362,0,0,0,0,3.1Z" transform="translate(20.763 26.31)" fill="url(#f)"/></g></g><path d="M1246.437,874.405h54.938" transform="translate(-141.68 3319.173)" fill="none" stroke="#dedce2" stroke-linecap="round" stroke-width="4"/><path d="M4,0H58.938" transform="translate(1163.696 4227.906) rotate(180)" fill="none" stroke="#dedce2" stroke-linecap="round" stroke-width="4"/><path d="M0,15.941,7.469,7.895,0,0" transform="translate(1153.227 4185.607)" fill="none" stroke="#dedce2" stroke-linecap="round" stroke-linejoin="round" stroke-width="4"/><path d="M0,15.941,7.469,7.895,0,0" transform="translate(1112.227 4235.876) rotate(180)" fill="none" stroke="#dedce2" stroke-linecap="round" stroke-linejoin="round" stroke-width="4"/><g transform="translate(-4.268 -16)"><g transform="matrix(1, 0, 0, 1, 961.04, 4073)" filter="url(#g)"><rect width="281.001" height="250" rx="2" transform="translate(274.96 29)" fill="#fff"/></g><rect width="281" height="41" transform="translate(1236 4208.56)" fill="#29263a"/><rect width="66.691" height="45.475" rx="2" transform="translate(1265.976 4265.099)" fill="#edeff2"/><rect width="50.691" height="7.18" rx="3.59" transform="translate(1265.976 4319.099)" fill="url(#i)"/><rect width="66.691" height="45.475" rx="2" transform="translate(1343.839 4265.099)" fill="#edeff2"/><rect width="56.429" height="7.18" rx="3.59" transform="translate(1343.839 4319.099)" fill="url(#i)"/><rect width="66.691" height="45.475" rx="2" transform="translate(1421.216 4265.099)" fill="#edeff2"/><rect width="51.691" height="7.18" rx="3.59" transform="translate(1421.216 4319.099)" fill="url(#i)"/><rect width="32.139" height="7.905" rx="3.952" transform="translate(1308.972 4132.967)" fill="#1c1b22"/><rect width="32.139" height="7.905" rx="3.952" transform="translate(1471.021 4132.967)" fill="#1c1b22"/><rect width="32.139" height="7.905" rx="3.952" transform="translate(1251.004 4132.967)" fill="#1c1b22"/><rect width="32.139" height="7.905" rx="3.952" transform="translate(1413.052 4132.967)" fill="#1c1b22"/><rect width="34.254" height="5.27" rx="2.635" transform="translate(1265.976 4223.06)" fill="#fff"/><rect width="26.619" height="5.27" rx="2.635" transform="translate(1265.976 4233.599)" fill="#fff"/><ellipse cx="3.952" cy="3.952" rx="3.952" ry="3.952" transform="translate(1310.771 4221.742)" fill="#7e7c88"/><ellipse cx="3.952" cy="3.952" rx="3.952" ry="3.952" transform="translate(1310.771 4232.282)" fill="url(#i)"/><g transform="translate(1236 4120.851)" clip-path="url(#n)"><g transform="translate(-127.803 -43.776)"><g transform="translate(0)"><rect width="434.64" height="174.919" fill="url(#i)"/><g clip-path="url(#p)"><path d="M0,27.989,49.249,0" transform="translate(365.805 -9.517)" fill="none" stroke="#1f1d2a" stroke-miterlimit="10" stroke-width="1"/><path d="M.5,15.762,24.984,0" transform="translate(390.07 108.85)" fill="none" stroke="#29263a" stroke-miterlimit="10" stroke-width="1"/><path d="M.5,17.256,28.837.75" transform="translate(336.67 50.701)" fill="none" stroke="#29263a" stroke-miterlimit="10" stroke-width="1"/><path d="M.986,43.867,69.935,0" transform="translate(270.832 136.657)" fill="none" stroke="#1f1d2a" stroke-miterlimit="10" stroke-width="1"/><path d="M0,16.1,26.823,0" transform="translate(187.718 108.85)" fill="none" stroke="#29263a" stroke-miterlimit="10" stroke-width="1"/><path d="M.986,42.083,69.339,0" transform="translate(131.79 142.011)" fill="none" stroke="#1f1d2a" stroke-miterlimit="10" stroke-width="1"/><path d="M134.361,294.921H50.4L438.721,95.059v8.273L134.362,294.921Zm124.77,0h-33.2l212.794-114.1v11.43L259.132,294.921Zm179.59,0H380.764l57.957-37.838V294.92ZM0,253.218v0H0V210.539L395.918,0h21.6Zm0-84.937v0H0v-64.14L200,0h73.52ZM0,29.824V0H49.455L0,29.823Z" transform="translate(0 -48.815)" fill="#29263a"/></g></g><path d="M0,18.13,31.9,0" transform="translate(139.247 39.094)" fill="none" stroke="#29263a" stroke-miterlimit="10" stroke-width="1"/></g></g><rect width="28.984" height="5.27" rx="2.635" transform="translate(1350.569 4223.06)" fill="#fff"/><rect width="32.937" height="5.27" rx="2.635" transform="translate(1350.569 4233.599)" fill="#fff"/><path d="M3.952,0A3.952,3.952,0,1,1,0,3.952,3.952,3.952,0,0,1,3.952,0Z" transform="translate(1395.363 4221.742)" fill="url(#i)"/><path d="M3.952,0A3.952,3.952,0,1,1,0,3.952,3.952,3.952,0,0,1,3.952,0Z" transform="translate(1395.363 4232.282)" fill="#7e7c88"/><rect width="32.937" height="5.27" rx="2.635" transform="translate(1435.162 4223.06)" fill="#fff"/><rect width="28.984" height="5.27" rx="2.635" transform="translate(1435.162 4233.599)" fill="#fff"/><ellipse cx="3.952" cy="3.952" rx="3.952" ry="3.952" transform="translate(1479.957 4221.742)" fill="#7e7c88" opacity="0.5"/><ellipse cx="3.952" cy="3.952" rx="3.952" ry="3.952" transform="translate(1479.957 4232.282)" fill="#7e7c88" opacity="0.5"/><path d="M2,0H279a2,2,0,0,1,2,2V20a0,0,0,0,1,0,0H0a0,0,0,0,1,0,0V2A2,2,0,0,1,2,0Z" transform="translate(1236 4102)" fill="#29263a"/><path d="M0,0H281a0,0,0,0,1,0,0V8a2,2,0,0,1-2,2H2A2,2,0,0,1,0,8V0A0,0,0,0,1,0,0Z" transform="translate(1236 4342)" fill="#29263a"/><ellipse cx="3.952" cy="3.952" rx="3.952" ry="3.952" transform="translate(1243.024 4107.676)" fill="#fff"/><ellipse cx="3.952" cy="3.952" rx="3.952" ry="3.952" transform="translate(1258.518 4107.676)" fill="#fff"/><ellipse cx="3.952" cy="3.952" rx="3.952" ry="3.952" transform="translate(1274.012 4107.676)" fill="#fff"/><g transform="translate(1353.951 4138.974)"><g transform="translate(6.952 45.145)" fill="#fff" stroke="#29263a" stroke-linejoin="round" stroke-width="1"><rect width="32.755" height="9.827" rx="1" stroke="none"/><rect x="0.5" y="0.5" width="31.755" height="8.827" rx="0.5" fill="none"/></g><g transform="translate(6.952 -35.87)" fill="#fff"><path d="M 16.37776374816895 69.05080413818359 C 12.13666343688965 69.05080413818359 8.14940357208252 67.39923858642578 5.150493621826172 64.40032196044922 C 2.151573657989502 61.40141677856445 0.5000037550926208 57.41416549682617 0.5000037550926208 53.17306518554688 L 0.5000037550926208 37.70325088500977 C 0.6709644198417664 37.57003784179688 1.544951200485229 37.10588836669922 5.647513866424561 36.75127410888672 C 8.494644165039063 36.50518417358398 12.24683380126953 36.36965560913086 16.21288299560547 36.36965560913086 C 20.22235298156738 36.36965560913086 24.04388427734375 36.50717544555664 26.97351455688477 36.75688552856445 C 31.16112899780273 37.11382675170898 32.07282257080078 37.57508850097656 32.25552368164063 37.71077728271484 L 32.25552368164063 53.17306518554688 C 32.25552368164063 57.41416549682617 30.60395431518555 61.40141677856445 27.60503387451172 64.40032196044922 C 24.60612297058105 67.39923858642578 20.61886405944824 69.05080413818359 16.37776374816895 69.05080413818359 Z" stroke="none"/><path d="M 16.21288299560547 36.86965179443359 C 12.42502403259277 36.86965179443359 8.804304122924805 36.99477386474609 6.017694473266602 37.22195434570313 C 2.659210205078125 37.49575805664063 1.426101684570313 37.83797454833984 1.000003814697266 38.00720977783203 L 1.000003814697266 53.17306137084961 C 1.000003814697266 57.28060150146484 2.599573135375977 61.14229202270508 5.504043579101563 64.04676818847656 C 8.408514022827148 66.95124053955078 12.27021408081055 68.55079650878906 16.37776374816895 68.55079650878906 C 20.48531341552734 68.55079650878906 24.34701347351074 66.95124053955078 27.25148391723633 64.04676818847656 C 30.15595436096191 61.14229202270508 31.75552368164063 57.28060150146484 31.75552368164063 53.17306137084961 L 31.75552368164063 38.01910400390625 C 31.31578254699707 37.84873962402344 30.04907608032227 37.50583648681641 26.60980415344238 37.22843933105469 C 23.74114418029785 36.9970703125 20.04877471923828 36.86965179443359 16.21288299560547 36.86965179443359 M 16.21288871765137 35.86965179443359 C 24.45637512207031 35.86965179443359 32.75552368164063 36.45912170410156 32.75552368164063 37.61418151855469 L 32.75552368164063 53.17306137084961 C 32.75552368164063 62.21824264526367 25.42295455932617 69.55079650878906 16.37776374816895 69.55079650878906 C 7.332572937011719 69.55079650878906 3.814697265625e-06 62.21824264526367 3.814697265625e-06 53.17306137084961 L 3.814697265625e-06 37.61418151855469 C 3.814697265625e-06 36.44351196289063 8.079353332519531 35.86965179443359 16.21288871765137 35.86965179443359 Z" stroke="none" fill="#29263a"/></g><path d="M2980.991,3404.407s5.228,3.435,5.322,7.619-3.966,6.472-3.966,6.472" transform="translate(-2965.858 -3372.85)" fill="none" stroke="#29263a" stroke-linecap="round" stroke-width="1"/><path d="M2986.317,3404.407s-5.229,3.435-5.324,7.619,3.966,6.472,3.966,6.472" transform="translate(-2954.801 -3372.85)" fill="none" stroke="#29263a" stroke-linecap="round" stroke-width="1"/><path d="M3007.577,3372.51a8.233,8.233,0,0,1,7.281,8.8c-.188,8.819-15.348,17.464-15.348,17.464" transform="translate(-2968.392 -3366.992)" fill="none" stroke="#29263a" stroke-linecap="round" stroke-width="1"/><path d="M3006.8,3372.51a8.232,8.232,0,0,0-7.281,8.8c.187,8.819,15.345,17.464,15.345,17.464" transform="translate(-2999.512 -3366.992)" fill="none" stroke="#29263a" stroke-linecap="round" stroke-width="1"/><g transform="translate(13.719 11.04)" fill="#ffc301" stroke="#29263a" stroke-miterlimit="10" stroke-width="1"><rect width="19.222" height="7.611" rx="3.806" stroke="none"/><rect x="-0.5" y="-0.5" width="20.222" height="8.611" rx="4.306" fill="none"/></g></g></g></g></svg>