<svg width="71" height="65" viewBox="0 0 71 65" fill="none" xmlns="http://www.w3.org/2000/svg">
<path d="M1.66318 45.1801C1.49599 45.0791 1.35738 44.9368 1.26058 44.7668C1.16378 44.5968 1.11199 44.4049 1.11016 44.2092C1.11016 44.0056 1.11016 38.6964 1.11016 38.5022C1.05705 36.4412 0.99148 35.0567 2.2506 34.3708L32.7349 18.6156C33.5954 18.112 34.5739 17.8466 35.5703 17.8466C36.5667 17.8466 37.5452 18.112 38.4056 18.6156L69.4555 34.7373C70.3928 35.2823 70.274 36.9298 70.2272 38.3644C70.2272 38.593 70.2116 43.9272 70.2116 44.1402C70.2116 44.7384 69.6055 45.1582 69.1962 45.3931L38.9086 63.0933C37.8957 63.687 36.7436 64 35.5703 64C34.397 64 33.2448 63.687 32.2319 63.0933L1.66318 45.1801Z" fill="url(#paint0_linear_312_13)"/>
<path d="M2.22548 34.3708L32.7285 16.5452C33.589 16.0416 34.5676 15.7762 35.564 15.7762C36.5603 15.7762 37.5388 16.0416 38.3993 16.5452L69.1899 34.5399C69.5087 34.7272 69.7731 34.9949 69.9569 35.3163C70.1407 35.6378 70.2374 36.0018 70.2374 36.3723C70.2374 36.7428 70.1407 37.1068 69.9569 37.4283C69.7731 37.7497 69.5087 38.0173 69.1899 38.2046L38.9023 55.9049C37.889 56.4973 36.737 56.8095 35.564 56.8095C34.3909 56.8095 33.2389 56.4973 32.2256 55.9049L2.23173 38.3643C1.88636 38.1589 1.60013 37.867 1.40114 37.5173C1.20215 37.1676 1.09719 36.7719 1.09656 36.3693C1.09593 35.9667 1.19966 35.5708 1.39755 35.2205C1.59545 34.8701 1.88075 34.5773 2.22548 34.3708V34.3708Z" fill="url(#paint1_linear_312_13)"/>
<path d="M7.63074 34.8657L33.2129 19.2421C33.9112 18.8118 34.7148 18.5841 35.5344 18.5841C36.354 18.5841 37.1575 18.8118 37.8558 19.2421L63.6723 35.0098C63.8716 35.1371 64.0357 35.3128 64.1494 35.5206C64.2631 35.7284 64.3227 35.9614 64.3227 36.1984C64.3227 36.4354 64.2631 36.6686 64.1494 36.8763C64.0357 37.0841 63.8716 37.2598 63.6723 37.3872L38.2651 52.9043C37.4429 53.4097 36.4972 53.6772 35.5328 53.6772C34.5684 53.6772 33.6228 53.4097 32.8006 52.9043L7.63074 37.5312C7.40824 37.3877 7.2252 37.1904 7.09847 36.9575C6.97174 36.7247 6.90533 36.4637 6.90533 36.1984C6.90533 35.9332 6.97174 35.6721 7.09847 35.4393C7.2252 35.2064 7.40824 35.0092 7.63074 34.8657V34.8657Z" fill="url(#paint2_linear_312_13)"/>
<path d="M7.63074 34.8657L33.2129 19.2421C33.9112 18.8118 34.7148 18.5841 35.5344 18.5841C36.354 18.5841 37.1575 18.8118 37.8558 19.2421L63.6723 35.0098C63.8716 35.1371 64.0357 35.3128 64.1494 35.5206C64.2631 35.7284 64.3227 35.9614 64.3227 36.1984C64.3227 36.4354 64.2631 36.6686 64.1494 36.8763C64.0357 37.0841 63.8716 37.2598 63.6723 37.3872L38.2651 52.9043C37.4429 53.4097 36.4972 53.6772 35.5328 53.6772C34.5684 53.6772 33.6228 53.4097 32.8006 52.9043L7.63074 37.5312C7.40824 37.3877 7.2252 37.1904 7.09847 36.9575C6.97174 36.7247 6.90533 36.4637 6.90533 36.1984C6.90533 35.9332 6.97174 35.6721 7.09847 35.4393C7.2252 35.2064 7.40824 35.0092 7.63074 34.8657V34.8657Z" fill="url(#paint3_linear_312_13)"/>
<path d="M7.44311 37.3934C7.50301 37.345 7.56563 37.3 7.63061 37.2587L33.2128 21.6351C33.9111 21.2049 34.7147 20.9771 35.5343 20.9771C36.3538 20.9771 37.1574 21.2049 37.8556 21.6351L63.6597 37.3934C63.859 37.2661 64.0232 37.0904 64.1368 36.8826C64.2505 36.6748 64.3101 36.4417 64.3101 36.2047C64.3101 35.9677 64.2505 35.7346 64.1368 35.5269C64.0232 35.3191 63.859 35.1434 63.6597 35.016L37.8431 19.2421C37.1449 18.8118 36.3413 18.5841 35.5217 18.5841C34.7022 18.5841 33.8986 18.8118 33.2003 19.2421L7.6181 34.8657C7.41295 34.9998 7.2416 35.1798 7.11756 35.3915C6.99351 35.6032 6.92017 35.8409 6.90322 36.0859C6.88626 36.3308 6.92616 36.5764 7.01985 36.8033C7.11353 37.0302 7.25841 37.2322 7.44311 37.3934Z" fill="url(#paint4_linear_312_13)"/>
<path opacity="0.5" d="M63.6442 37.3059L40.6895 51.4009L38.315 52.967C37.5192 53.4149 36.6276 53.6641 35.7155 53.6937C34.7214 53.7429 33.7358 53.4897 32.8879 52.967L7.7869 37.5282C7.7869 37.5282 6.88392 37.0459 6.88392 36.197C6.88392 35.3482 4.62189 26.6155 4.62189 26.6155H66.5873C66.5873 26.6155 64.3284 35.107 64.3284 36.0748C64.3284 37.0427 63.6442 37.3059 63.6442 37.3059Z" fill="url(#paint5_linear_312_13)"/>
<path opacity="0.7" d="M49.7907 28.4322V31.6239H50.3812V28.4322C50.3812 28.4322 50.3593 28.119 50.0688 28.119C49.7782 28.119 49.7907 28.4322 49.7907 28.4322Z" fill="url(#paint6_linear_312_13)"/>
<path d="M2.62232 19.4018C2.66673 19.3715 2.71377 19.3452 2.7629 19.3234L32.6692 4.32634C33.5167 3.828 34.4815 3.56531 35.464 3.56531C36.4465 3.56531 37.4113 3.828 38.2587 4.32634L68.7118 19.4738C69.6991 19.9749 70.2053 21.3125 70.2053 22.6781C70.2053 22.8598 70.2053 23.0853 70.2053 23.3265C70.2057 23.7467 70.102 24.1604 69.9035 24.5306C69.705 24.9007 69.4179 25.2156 69.068 25.447L68.5993 25.7602L39.6272 42.7557C38.3637 43.4985 36.9256 43.8902 35.4609 43.8902C33.9962 43.8902 32.558 43.4985 31.2945 42.7557L2.60668 25.9262C2.24738 25.6976 1.96618 25.5127 1.5069 25.187C1.35015 25.0756 1.22236 24.9282 1.13428 24.7571C1.0462 24.5859 1.00046 24.3961 1.00079 24.2035C1.00079 23.765 1.00079 23.22 1.00079 22.8034C0.975799 21.4534 1.54129 20.0783 2.62232 19.4018Z" fill="url(#paint7_linear_312_13)"/>
<path d="M2.616 19.3955L32.7879 1.76111C33.6388 1.26269 34.6065 1 35.592 1C36.5775 1 37.5453 1.26269 38.3961 1.76111L68.8524 19.5616C69.168 19.7469 69.4297 20.0118 69.6116 20.3299C69.7935 20.6481 69.8893 21.0084 69.8893 21.3751C69.8893 21.7418 69.7935 22.1022 69.6116 22.4203C69.4297 22.7385 69.168 23.0034 68.8524 23.1887L38.8929 40.6979C37.8911 41.2856 36.7512 41.5953 35.5905 41.5953C34.4297 41.5953 33.2899 41.2856 32.288 40.6979L2.60662 23.3547C2.26302 23.1513 1.97846 22.8613 1.78106 22.5136C1.58366 22.1659 1.48026 21.7725 1.48121 21.3725C1.48215 20.9724 1.58735 20.5795 1.7864 20.2327C1.98544 19.886 2.27144 19.5974 2.616 19.3955Z" fill="url(#paint8_linear_312_13)"/>
<path d="M55.417 24.8221C54.7374 24.4809 53.9869 24.3032 53.2259 24.3032C52.4649 24.3032 51.7146 24.4809 51.0349 24.8221L48.8483 23.5628C48.6836 23.4849 48.5014 23.4511 48.3196 23.4645C46.6904 23.6286 45.0484 23.3183 43.5925 22.5714L42.6964 22.0533C43.1784 21.5295 43.5148 20.8892 43.6719 20.196C43.8291 19.5027 43.8017 18.7806 43.5925 18.1011L44.874 15.6405C45.5954 14.2605 44.9412 12.76 43.1669 11.7419L37.463 8.45946C37.3247 8.38746 37.171 8.34988 37.015 8.34988C36.8589 8.34988 36.7052 8.38746 36.5669 8.45946L33.063 10.4735L31.3111 9.46873C31.1733 9.39524 31.0194 9.35676 30.8631 9.35676C30.7068 9.35676 30.5528 9.39524 30.415 9.46873L15.5303 18.0341C15.4781 18.0527 15.433 18.0869 15.401 18.1321C15.3691 18.1773 15.3519 18.2312 15.3519 18.2865C15.3519 18.3417 15.3691 18.3956 15.401 18.4407C15.433 18.4859 15.4781 18.5202 15.5303 18.5388L17.2822 19.5436L13.7783 21.5621C13.7261 21.5807 13.681 21.6149 13.649 21.6601C13.6171 21.7053 13.6 21.7591 13.6 21.8144C13.6 21.8696 13.6171 21.9236 13.649 21.9688C13.681 22.0139 13.7261 22.0481 13.7783 22.0667L19.4822 25.3491C21.2744 26.3717 23.8553 26.7468 26.257 26.3315L30.536 25.5902C32.8363 25.8428 35.1636 25.6686 37.4003 25.0766L38.2964 25.5947C39.533 26.3092 40.12 27.314 39.8736 28.3143C39.869 28.3765 39.8832 28.4388 39.9144 28.4929C39.9455 28.547 39.9922 28.5906 40.0484 28.6181L42.2394 29.8773C41.0296 30.574 41.0296 31.6994 42.2394 32.3961C42.3748 32.4644 42.5245 32.4999 42.6763 32.4999C42.828 32.4999 42.9776 32.4644 43.1131 32.3961L55.3766 25.3401C55.4356 25.33 55.4896 25.3006 55.5299 25.2565C55.5702 25.2124 55.5946 25.1563 55.5992 25.0968C55.6039 25.0373 55.5884 24.978 55.5554 24.9282C55.5224 24.8785 55.4737 24.8412 55.417 24.8221V24.8221ZM37.0464 9.19191L42.3156 12.2241C43.7673 13.0547 44.3005 14.2829 43.709 15.4127L42.9743 16.8283C42.3246 15.9666 41.4982 15.2526 40.5502 14.7339L33.9816 10.9559L37.0464 9.19191ZM25.9613 25.6259C24.0769 25.9782 22.1284 25.6955 20.4232 24.8221L15.1539 21.7899L18.2187 20.0259L24.7873 23.8084C25.9264 24.4451 27.1519 24.9144 28.4256 25.2017L25.9613 25.6259ZM25.6655 23.3037L16.9058 18.2618L30.9168 10.2234L39.6765 15.2608C43.5432 17.4937 43.5432 21.0976 39.6765 23.3261C35.8097 25.5545 29.5099 25.5366 25.6431 23.3127L25.6655 23.3037ZM39.2374 25.09L38.6056 24.7238C39.2767 24.4783 39.9269 24.1796 40.5502 23.8306C41.1055 23.5088 41.6278 23.1335 42.1094 22.7098L42.7412 23.0715C44.026 23.7589 45.4512 24.1453 46.9083 24.2013L41.1999 27.4882C41.0252 26.5682 40.3306 25.7197 39.2149 25.0766L39.2374 25.09ZM41.424 28.3635L48.4316 24.3443L50.1835 25.3491L43.1759 29.3683L41.424 28.3635ZM42.8129 31.5967C42.4769 31.1903 42.6203 30.7036 43.1759 30.382L51.9355 25.3401C52.5904 25.0126 53.3436 24.9379 54.0504 25.1303L42.8129 31.5967Z" fill="url(#paint9_linear_312_13)"/>
<path d="M36.2177 15.753L32.2058 13.7811C31.9523 13.6622 31.6699 13.6 31.3831 13.6C31.0962 13.6 30.8137 13.6622 30.5602 13.7811L23.5369 17.4559C23.3916 17.5149 23.2685 17.6097 23.1821 17.7289C23.0958 17.8482 23.0499 17.9868 23.0499 18.1285C23.0499 18.2702 23.0958 18.409 23.1821 18.5282C23.2685 18.6475 23.3916 18.7423 23.5369 18.8013L27.5441 20.7732C27.7961 20.8931 28.0785 20.9539 28.3645 20.9498C28.6525 20.9539 28.937 20.8915 29.1898 20.769L36.213 17.0942C36.3583 17.0352 36.4814 16.9404 36.5677 16.8212C36.654 16.7019 36.6999 16.5633 36.6999 16.4216C36.6999 16.2799 36.654 16.1411 36.5677 16.0218C36.4814 15.9026 36.3583 15.8078 36.213 15.7488L36.2177 15.753ZM28.7108 20.029C28.6042 20.0716 28.4886 20.0936 28.3717 20.0936C28.2548 20.0936 28.1391 20.0716 28.0326 20.029L24.1819 18.1327L31.0534 14.5337C31.1586 14.4921 31.2725 14.4706 31.3877 14.4706C31.5029 14.4706 31.6168 14.4921 31.722 14.5337L35.5776 16.4342L28.7108 20.029Z" fill="url(#paint10_linear_312_13)"/>
<defs>
<linearGradient id="paint0_linear_312_13" x1="197230" y1="138875" x2="212544" y2="138875" gradientUnits="userSpaceOnUse">
<stop stop-color="#2A2047"/>
<stop offset="1" stop-color="#31294F"/>
</linearGradient>
<linearGradient id="paint1_linear_312_13" x1="197144" y1="122863" x2="212447" y2="122863" gradientUnits="userSpaceOnUse">
<stop stop-color="#312A56"/>
<stop offset="1" stop-color="#423572"/>
</linearGradient>
<linearGradient id="paint2_linear_312_13" x1="170069" y1="107511" x2="170069" y2="103580" gradientUnits="userSpaceOnUse">
<stop offset="0.1" stop-color="#14DD94"/>
<stop offset="0.44" stop-color="#06EF95"/>
</linearGradient>
<linearGradient id="paint3_linear_312_13" x1="38.5681" y1="25.8824" x2="28.9724" y2="59.1653" gradientUnits="userSpaceOnUse">
<stop stop-color="#D40035"/>
<stop offset="0.5" stop-color="#E9005B"/>
<stop offset="1" stop-color="#FF1584"/>
</linearGradient>
<linearGradient id="paint4_linear_312_13" x1="170049" y1="56535.3" x2="170049" y2="55405.8" gradientUnits="userSpaceOnUse">
<stop stop-color="#2A2047"/>
<stop offset="1" stop-color="#31294F"/>
</linearGradient>
<linearGradient id="paint5_linear_312_13" x1="35.603" y1="53.725" x2="35.603" y2="26.6343" gradientUnits="userSpaceOnUse">
<stop offset="0.49" stop-color="#D40053" stop-opacity="0.7"/>
<stop offset="0.6" stop-color="#DB0756" stop-opacity="0.62"/>
<stop offset="0.81" stop-color="#ED185D" stop-opacity="0.41"/>
<stop offset="1" stop-color="#FF2A65" stop-opacity="0.2"/>
</linearGradient>
<linearGradient id="paint6_linear_312_13" x1="1826.21" y1="10469.1" x2="1826.21" y2="10429.8" gradientUnits="userSpaceOnUse">
<stop stop-color="#06EF95" stop-opacity="0"/>
<stop offset="0.11" stop-color="#06EE94" stop-opacity="0.07"/>
<stop offset="0.31" stop-color="#05EC90" stop-opacity="0.25"/>
<stop offset="0.6" stop-color="#03E88A" stop-opacity="0.54"/>
<stop offset="0.95" stop-color="#00E382" stop-opacity="0.94"/>
<stop offset="1" stop-color="#00E281"/>
</linearGradient>
<linearGradient id="paint7_linear_312_13" x1="197311" y1="119111" x2="212641" y2="119111" gradientUnits="userSpaceOnUse">
<stop stop-color="#D6D0EF"/>
<stop offset="1" stop-color="#B6B9DD"/>
</linearGradient>
<linearGradient id="paint8_linear_312_13" x1="1.48496" y1="21.2986" x2="69.8865" y2="21.2986" gradientUnits="userSpaceOnUse">
<stop stop-color="white"/>
<stop offset="1" stop-color="#ECE8F9"/>
</linearGradient>
<linearGradient id="paint9_linear_312_13" x1="122333" y1="71075.3" x2="126266" y2="71075.3" gradientUnits="userSpaceOnUse">
<stop stop-color="#FD0845"/>
<stop offset="0.5" stop-color="#E9005B"/>
<stop offset="1" stop-color="#FF1584"/>
</linearGradient>
<linearGradient id="paint10_linear_312_13" x1="40074.6" y1="21597.8" x2="40467.6" y2="21597.8" gradientUnits="userSpaceOnUse">
<stop stop-color="#FC0D49"/>
<stop offset="0.5" stop-color="#E9005B"/>
<stop offset="1" stop-color="#FF1584"/>
</linearGradient>
</defs>
</svg>
