<svg width="71" height="65" viewBox="0 0 71 65" fill="none" xmlns="http://www.w3.org/2000/svg">
<path d="M1.66184 45.1938C1.49458 45.0931 1.35593 44.9509 1.25918 44.781C1.16242 44.6111 1.11079 44.4192 1.10926 44.2236C1.10926 44.0201 1.10926 38.7152 1.10926 38.5243C1.05618 36.4649 0.990671 35.0815 2.2488 34.393L32.7091 18.6533C33.5689 18.1501 34.5466 17.8849 35.5422 17.8849C36.5378 17.8849 37.5156 18.1501 38.3754 18.6533L69.4008 34.7591C70.3374 35.3037 70.2187 36.95 70.1719 38.3834C70.1719 38.615 70.1563 43.945 70.1563 44.1578C70.1563 44.7556 69.5506 45.1719 69.1417 45.4097L38.878 63.0961C37.8655 63.6881 36.7143 64 35.5422 64C34.3701 64 33.2191 63.6881 32.2065 63.0961L1.66184 45.1938Z" fill="url(#paint0_linear_312_14)"/>
<path d="M2.218 34.3961L32.6971 16.5814C33.5569 16.0782 34.5347 15.813 35.5303 15.813C36.5258 15.813 37.5036 16.0782 38.3634 16.5814L69.1297 34.5619C69.4475 34.7501 69.7108 35.0181 69.8938 35.3395C70.0767 35.6608 70.173 36.0244 70.173 36.3944C70.173 36.7644 70.0767 37.1281 69.8938 37.4494C69.7108 37.7708 69.4475 38.0388 69.1297 38.227L38.8659 55.9102C37.8539 56.5034 36.7026 56.816 35.5303 56.816C34.3579 56.816 33.2066 56.5034 32.1945 55.9102L2.22425 38.3834C1.8791 38.1785 1.593 37.8872 1.39408 37.538C1.19516 37.1888 1.09029 36.7936 1.08966 36.3915C1.08903 35.9894 1.19268 35.594 1.3905 35.2442C1.58832 34.8944 1.87349 34.6021 2.218 34.3961V34.3961Z" fill="url(#paint1_linear_312_14)"/>
<path d="M7.62463 34.9062L33.1867 19.2918C33.885 18.8637 34.6877 18.6371 35.5063 18.6371C36.3248 18.6371 37.1276 18.8637 37.8259 19.2918L63.6221 35.0502C63.8206 35.1776 63.984 35.353 64.0971 35.5603C64.2102 35.7676 64.2696 36.0001 64.2696 36.2364C64.2696 36.4727 64.2102 36.7052 64.0971 36.9125C63.984 37.1198 63.8206 37.2952 63.6221 37.4226L38.2348 52.9275C37.4137 53.4339 36.4687 53.7019 35.5047 53.7019C34.5408 53.7019 33.5957 53.4339 32.7746 52.9275L7.62463 37.5666C7.39875 37.4262 7.21229 37.2304 7.08303 36.9976C6.95376 36.7648 6.88593 36.5028 6.88593 36.2364C6.88593 35.97 6.95376 35.708 7.08303 35.4752C7.21229 35.2424 7.39875 35.0466 7.62463 34.9062V34.9062Z" fill="url(#paint2_linear_312_14)"/>
<path d="M7.62463 34.9062L33.1867 19.2918C33.885 18.8637 34.6877 18.6371 35.5063 18.6371C36.3248 18.6371 37.1276 18.8637 37.8259 19.2918L63.6221 35.0502C63.8206 35.1776 63.984 35.353 64.0971 35.5603C64.2102 35.7676 64.2696 36.0001 64.2696 36.2364C64.2696 36.4727 64.2102 36.7052 64.0971 36.9125C63.984 37.1198 63.8206 37.2952 63.6221 37.4226L38.2348 52.9275C37.4137 53.4339 36.4687 53.7019 35.5047 53.7019C34.5408 53.7019 33.5957 53.4339 32.7746 52.9275L7.62463 37.5666C7.39875 37.4262 7.21229 37.2304 7.08303 36.9976C6.95376 36.7648 6.88593 36.5028 6.88593 36.2364C6.88593 35.97 6.95376 35.708 7.08303 35.4752C7.21229 35.2424 7.39875 35.0466 7.62463 34.9062V34.9062Z" fill="url(#paint3_linear_312_14)"/>
<path d="M7.44069 37.4102C7.49915 37.3591 7.56184 37.3131 7.62803 37.2725L33.1901 21.6612C33.8878 21.2313 34.6907 21.0038 35.5097 21.0038C36.3286 21.0038 37.1316 21.2313 37.8293 21.6612L63.613 37.4102C63.8115 37.2828 63.9749 37.1074 64.088 36.9001C64.2011 36.6928 64.2605 36.4603 64.2605 36.224C64.2605 35.9877 64.2011 35.7552 64.088 35.548C63.9749 35.3407 63.8115 35.1652 63.613 35.0378L37.8168 19.2795C37.1185 18.8513 36.3158 18.6247 35.4972 18.6247C34.6787 18.6247 33.8759 18.8513 33.1776 19.2795L7.62491 34.9064C7.42327 35.0402 7.25483 35.2185 7.13262 35.4277C7.0104 35.6368 6.9376 35.8713 6.91981 36.113C6.90203 36.3548 6.93974 36.5974 7.03003 36.8223C7.12031 37.0471 7.2608 37.2483 7.44069 37.4102Z" fill="url(#paint4_linear_312_14)"/>
<path opacity="0.5" d="M63.6709 39.0798L40.7075 51.7725L38.3322 53.1828C37.5361 53.5861 36.6441 53.8105 35.7317 53.8371C34.7372 53.8815 33.7512 53.6534 32.903 53.1828L7.79249 39.2801C7.79249 39.2801 6.88916 38.8457 6.88916 38.0813C6.88916 37.3169 1.51324 21.0083 1.51324 21.0083H69.747C69.747 21.0083 64.3617 37.1167 64.3617 37.9882C64.3617 38.8598 63.6709 39.0798 63.6709 39.0798Z" fill="url(#paint5_linear_312_14)"/>
<path opacity="0.7" d="M49.7517 28.4589V31.6482H50.3417V28.4589C50.3417 28.4589 50.3198 28.146 50.0295 28.146C49.7391 28.146 49.7517 28.4589 49.7517 28.4589Z" fill="url(#paint6_linear_312_14)"/>
<path d="M2.62046 19.3844C2.66416 19.3562 2.7141 19.3312 2.76093 19.3061L32.6437 4.32388C33.4906 3.82593 34.4546 3.56345 35.4363 3.56345C36.4181 3.56345 37.3821 3.82593 38.2289 4.32388L68.658 19.4595C69.6445 19.9603 70.1503 21.2967 70.1503 22.6612C70.1503 22.8428 70.1503 23.0681 70.1503 23.3091C70.1507 23.729 70.0471 24.1425 69.8488 24.5123C69.6504 24.8821 69.3635 25.1967 69.0139 25.4279L68.5456 25.7409L39.5962 42.7169C38.3333 43.4578 36.8965 43.8483 35.4332 43.8483C33.9699 43.8483 32.533 43.4578 31.2701 42.7169L2.60483 25.9005C2.24581 25.672 1.96483 25.4843 1.50592 25.1619C1.34905 25.0502 1.22122 24.9023 1.13321 24.7307C1.0452 24.5592 0.999628 24.3689 1.00021 24.176C1.00021 23.741 1.00021 23.1933 1.00021 22.7801C0.987719 21.4375 1.54028 20.0604 2.62046 19.3844Z" fill="url(#paint7_linear_312_14)"/>
<path d="M2.61395 19.3811L32.7622 1.76051C33.6124 1.26248 34.5793 1 35.564 1C36.5487 1 37.5158 1.26248 38.366 1.76051L68.7982 19.547C69.1136 19.7322 69.3751 19.9969 69.5569 20.3148C69.7387 20.6327 69.8343 20.9927 69.8343 21.3591C69.8343 21.7255 69.7387 22.0856 69.5569 22.4035C69.3751 22.7214 69.1136 22.9861 68.7982 23.1713L38.8623 40.6667C37.8605 41.2518 36.7219 41.56 35.5625 41.56C34.4031 41.56 33.2644 41.2518 32.2626 40.6667L2.60457 23.3371C2.26124 23.1338 1.97683 22.8441 1.77959 22.4967C1.58234 22.1493 1.4791 21.7562 1.48005 21.3564C1.48099 20.9567 1.58611 20.5642 1.785 20.2177C1.98388 19.8712 2.26966 19.5828 2.61395 19.3811V19.3811Z" fill="url(#paint8_linear_312_14)"/>
<path d="M57.3846 17.6908L41.096 8.06182C40.1211 7.56095 39.0431 7.2999 37.9498 7.2999C36.8565 7.2999 35.7787 7.56095 34.8038 8.06182L13.9115 20.2687C13.0325 20.7818 12.55 21.4811 12.55 22.2384C12.55 22.9956 13.0325 23.6949 13.9115 24.208L30.2002 33.837C31.1756 34.3385 32.2542 34.5999 33.3483 34.5999C34.4424 34.5999 35.521 34.3385 36.4964 33.837L57.3846 21.6301C58.2636 21.1128 58.75 20.4135 58.75 19.6604C58.75 18.9073 58.2636 18.2039 57.3846 17.6908ZM14.7415 23.4632C14.1691 23.128 13.8503 22.6935 13.8503 22.2218C13.8503 21.7501 14.1691 21.3321 14.7415 20.9804L35.6337 8.77353C36.3515 8.40526 37.145 8.21345 37.9498 8.21345C38.7546 8.21345 39.5481 8.40526 40.266 8.77353L41.5743 9.53494L16.2706 24.3239L14.7415 23.4632ZM56.5546 20.8852L35.6664 33.0921C34.9458 33.4535 34.1525 33.6416 33.3483 33.6416C32.5441 33.6416 31.7506 33.4535 31.03 33.0921L17.3214 24.9694L42.625 10.1846L56.5546 18.4356C57.127 18.7708 57.4458 19.2053 57.4458 19.677C57.4458 20.1487 57.127 20.5459 56.5546 20.8852V20.8852Z" fill="url(#paint9_linear_312_14)"/>
<path d="M40.2725 16.0336C39.8404 15.8097 39.3583 15.6951 38.8696 15.7002H36.5867C35.406 15.7429 34.6392 16.2046 34.6 16.8373V27.0149C34.6054 27.1063 34.6312 27.1954 34.6756 27.2759C34.72 27.3564 34.782 27.4263 34.8571 27.4807L36.8742 29.1094C37.0933 29.2547 37.3505 29.3349 37.6149 29.3402C37.9155 29.3746 38.2196 29.3179 38.4863 29.1777L40.6254 27.4679C40.7758 27.3485 40.8741 27.1773 40.9 26.9892L40.8738 16.8159C40.8508 16.6457 40.7833 16.4843 40.678 16.3472C40.5726 16.2101 40.4329 16.1021 40.2725 16.0336V16.0336ZM39.6844 27.0276C39.6908 27.0363 39.6942 27.0468 39.6942 27.0576C39.6942 27.0683 39.6908 27.0788 39.6844 27.0875L37.7543 28.6391L35.8286 27.0918C35.8154 27.0813 35.8057 27.0671 35.8011 27.051C35.7964 27.0349 35.7969 27.0178 35.8025 27.0021V19.248H39.7497L39.7279 27.0021L39.6844 27.0276ZM39.7061 18.594H35.7546V16.8373C35.7546 16.5979 36.1205 16.367 36.5823 16.367H38.8827C39.0792 16.3625 39.2733 16.4097 39.4448 16.5038C39.6234 16.6022 39.7061 16.7133 39.7061 16.8373V18.594Z" fill="url(#paint10_linear_312_14)"/>
<path d="M32.9975 23.4072H28.6391C28.4116 23.4072 28.3628 23.3428 28.3587 23.2482V20.7123C28.3577 20.6905 28.3625 20.6689 28.3726 20.6499C28.3826 20.6309 28.3976 20.6153 28.4156 20.6048C28.4752 20.5702 28.5427 20.5539 28.6106 20.5576H30.4262V22.0146C30.479 22.1779 30.6618 22.2897 30.9299 22.3198H31.0396C31.3036 22.2897 31.4823 22.2124 31.5473 21.9803V20.5576H33.0177C33.3305 20.5576 33.5295 20.4114 33.5295 20.2137C33.5295 20.016 33.294 19.9 32.9934 19.9H28.5659C27.855 19.9258 27.2904 20.2352 27.2498 20.7166V23.2955C27.2678 23.4166 27.3145 23.5311 27.3855 23.6281C27.4565 23.7251 27.5496 23.8013 27.656 23.8499C27.9469 24.0151 28.2723 24.1009 28.6025 24.0993H33.0137C33.1424 24.1052 33.2701 24.074 33.3833 24.009C33.4267 23.9852 33.4644 23.9511 33.4933 23.9093C33.5222 23.8676 33.5415 23.8193 33.5498 23.7683C33.5376 23.5491 33.3387 23.4244 32.9975 23.4072Z" fill="url(#paint11_linear_312_14)"/>
<path d="M47.7985 20.1557C47.4585 19.9876 47.0778 19.8997 46.6911 19.9H41.5301C41.1784 19.9 40.936 20.0213 40.9027 20.2294C40.8695 20.4374 41.1309 20.5415 41.5301 20.5631H43.2219V22.0325C43.2836 22.1972 43.4975 22.3099 43.8064 22.3403H43.9347C44.2484 22.3099 44.4527 22.2319 44.5288 21.9978V20.5631H46.6246C46.8908 20.5631 46.943 20.6282 46.9525 20.7192V23.2765C46.9543 23.2985 46.9489 23.3205 46.9371 23.3398C46.9253 23.359 46.9074 23.3747 46.8859 23.3848C46.8149 23.4212 46.7344 23.4391 46.6531 23.4368H41.5016C41.1309 23.4368 40.9027 23.5798 40.9027 23.7836C40.9027 23.9873 41.1784 24.1 41.5301 24.1H46.7101C47.0901 24.0994 47.464 24.0131 47.7985 23.8486C47.9198 23.796 48.0246 23.7164 48.1035 23.6172C48.1824 23.518 48.2327 23.4023 48.2499 23.2808V20.6802C48.2259 20.5663 48.1724 20.4592 48.0938 20.368C48.0153 20.2768 47.9141 20.204 47.7985 20.1557V20.1557Z" fill="url(#paint12_linear_312_14)"/>
<defs>
<linearGradient id="paint0_linear_312_14" x1="1.07492" y1="40.9404" x2="70.1907" y2="40.9404" gradientUnits="userSpaceOnUse">
<stop stop-color="#2A2047"/>
<stop offset="1" stop-color="#31294F"/>
</linearGradient>
<linearGradient id="paint1_linear_312_14" x1="1.07853" y1="36.3146" x2="70.1755" y2="36.3146" gradientUnits="userSpaceOnUse">
<stop stop-color="#312A56"/>
<stop offset="1" stop-color="#423572"/>
</linearGradient>
<linearGradient id="paint2_linear_312_14" x1="35.5843" y1="57.9883" x2="35.5843" y2="22.9224" gradientUnits="userSpaceOnUse">
<stop offset="0.1" stop-color="#14DD94"/>
<stop offset="0.44" stop-color="#06EF95"/>
</linearGradient>
<linearGradient id="paint3_linear_312_14" x1="38.5377" y1="25.9113" x2="28.9495" y2="59.171" gradientUnits="userSpaceOnUse">
<stop stop-color="#6C00E9"/>
<stop offset="0.5" stop-color="#6800BF"/>
<stop offset="1" stop-color="#8800BF"/>
</linearGradient>
<linearGradient id="paint4_linear_312_14" x1="161556" y1="54579.1" x2="161556" y2="53450.8" gradientUnits="userSpaceOnUse">
<stop stop-color="#2A2047"/>
<stop offset="1" stop-color="#31294F"/>
</linearGradient>
<linearGradient id="paint5_linear_312_14" x1="35.6192" y1="53.8653" x2="35.6192" y2="21.0083" gradientUnits="userSpaceOnUse">
<stop offset="0.48" stop-color="#6200D4" stop-opacity="0.7"/>
<stop offset="0.59" stop-color="#7318DB" stop-opacity="0.62"/>
<stop offset="0.81" stop-color="#A155ED" stop-opacity="0.41"/>
<stop offset="1" stop-color="#CF94FF" stop-opacity="0.2"/>
</linearGradient>
<linearGradient id="paint6_linear_312_14" x1="50.0451" y1="31.6482" x2="50.0451" y2="28.1334" gradientUnits="userSpaceOnUse">
<stop stop-color="#06EF95" stop-opacity="0"/>
<stop offset="0.11" stop-color="#06EE94" stop-opacity="0.07"/>
<stop offset="0.31" stop-color="#05EC90" stop-opacity="0.25"/>
<stop offset="0.6" stop-color="#03E88A" stop-opacity="0.54"/>
<stop offset="0.95" stop-color="#00E382" stop-opacity="0.94"/>
<stop offset="1" stop-color="#00E281"/>
</linearGradient>
<linearGradient id="paint7_linear_312_14" x1="1.00021" y1="23.7066" x2="70.1534" y2="23.7066" gradientUnits="userSpaceOnUse">
<stop stop-color="#D6D0EF"/>
<stop offset="1" stop-color="#B6B9DD"/>
</linearGradient>
<linearGradient id="paint8_linear_312_14" x1="1.4838" y1="21.2809" x2="69.8316" y2="21.2809" gradientUnits="userSpaceOnUse">
<stop stop-color="white"/>
<stop offset="1" stop-color="#ECE8F9"/>
</linearGradient>
<linearGradient id="paint9_linear_312_14" x1="128735" y1="78243.6" x2="130205" y2="75755.4" gradientUnits="userSpaceOnUse">
<stop stop-color="#6C00E9"/>
<stop offset="0.5" stop-color="#6800BF"/>
<stop offset="1" stop-color="#8800BF"/>
</linearGradient>
<linearGradient id="paint10_linear_312_14" x1="17751.8" y1="38880.1" x2="17956.4" y2="38785.7" gradientUnits="userSpaceOnUse">
<stop stop-color="#6C00E9"/>
<stop offset="0.5" stop-color="#6800BF"/>
<stop offset="1" stop-color="#8800BF"/>
</linearGradient>
<linearGradient id="paint11_linear_312_14" x1="17670.6" y1="11963.3" x2="17715.6" y2="11895.7" gradientUnits="userSpaceOnUse">
<stop stop-color="#6C00E9"/>
<stop offset="0.5" stop-color="#6800BF"/>
<stop offset="1" stop-color="#8800BF"/>
</linearGradient>
<linearGradient id="paint12_linear_312_14" x1="20856.5" y1="11963.3" x2="20898.5" y2="11889.7" gradientUnits="userSpaceOnUse">
<stop stop-color="#6C00E9"/>
<stop offset="0.5" stop-color="#6800BF"/>
<stop offset="1" stop-color="#8800BF"/>
</linearGradient>
</defs>
</svg>
